<?xml version="1.0" encoding="UTF-8" standalone="no"?>
<!-- Created with Inkscape (http://www.inkscape.org/) -->

<svg
   xmlns:dc="http://purl.org/dc/elements/1.1/"
   xmlns:cc="http://creativecommons.org/ns#"
   xmlns:rdf="http://www.w3.org/1999/02/22-rdf-syntax-ns#"
   xmlns:svg="http://www.w3.org/2000/svg"
   xmlns="http://www.w3.org/2000/svg"
   xmlns:sodipodi="http://sodipodi.sourceforge.net/DTD/sodipodi-0.dtd"
   xmlns:inkscape="http://www.inkscape.org/namespaces/inkscape"
   width="178"
   height="246"
   id="svg2"
   sodipodi:version="0.32"
   inkscape:version="0.47 r22583"
   version="1.0"
   sodipodi:docname="CardImages.svg"
   inkscape:output_extension="org.inkscape.output.svg.inkscape"
   style="display:inline"
   inkscape:export-filename="/home/mg/Projects/ShuffleMeter/CardLib/CardImages/KingDiamonds.png"
   inkscape:export-xdpi="35.898876"
   inkscape:export-ydpi="35.898876">
  <defs
     id="defs4">
    <inkscape:perspective
       sodipodi:type="inkscape:persp3d"
       inkscape:vp_x="0 : 526.18109 : 1"
       inkscape:vp_y="0 : 1000 : 0"
       inkscape:vp_z="744.09448 : 526.18109 : 1"
       inkscape:persp3d-origin="372.04724 : 350.78739 : 1"
       id="perspective10" />
    <inkscape:perspective
       id="perspective2447"
       inkscape:persp3d-origin="372.04724 : 350.78739 : 1"
       inkscape:vp_z="744.09448 : 526.18109 : 1"
       inkscape:vp_y="0 : 1000 : 0"
       inkscape:vp_x="0 : 526.18109 : 1"
       sodipodi:type="inkscape:persp3d" />
  </defs>
  <sodipodi:namedview
     id="base"
     pagecolor="#ffffff"
     bordercolor="#666666"
     borderopacity="1.0"
     inkscape:pageopacity="0.0"
     inkscape:pageshadow="2"
     inkscape:zoom="2.5589888"
     inkscape:cx="88.757525"
     inkscape:cy="119.46064"
     inkscape:document-units="px"
     inkscape:current-layer="g3817"
     showgrid="false"
     inkscape:window-width="1280"
     inkscape:window-height="949"
     inkscape:window-x="0"
     inkscape:window-y="24"
     inkscape:window-maximized="1" />
  <metadata
     id="metadata7">
    <rdf:RDF>
      <cc:Work
         rdf:about="">
        <dc:format>image/svg+xml</dc:format>
        <dc:type
           rdf:resource="http://purl.org/dc/dcmitype/StillImage" />
        <dc:title></dc:title>
      </cc:Work>
    </rdf:RDF>
  </metadata>
  <g
     inkscape:groupmode="layer"
     id="layer2"
     inkscape:label="Karte"
     style="display:inline"
     sodipodi:insensitive="true">
    <rect
       style="fill:#ffffff;fill-opacity:1;stroke:#000000;stroke-width:0.99518156;stroke-linejoin:round;stroke-opacity:1"
       id="rect2453"
       width="177.00482"
       height="245.00482"
       x="0.49759045"
       y="0.4975875"
       ry="11.366358" />
  </g>
  <g
     inkscape:groupmode="layer"
     id="layer9"
     inkscape:label="Suits"
     style="display:inline"
     sodipodi:insensitive="true">
    <g
       inkscape:groupmode="layer"
       id="layer10"
       inkscape:label="Diamonds"
       style="display:inline">
      <g
         style="display:inline"
         id="g3686"
         transform="translate(-363.93545,-4.7411687)">
        <path
           style="fill:#ce4646;fill-opacity:1;stroke:none"
           d="m 501.68303,38.819537 c 4.68517,9.80676 11.53129,18.36142 22.533,29.50029 -13.77917,11.42216 -16.84126,20.27157 -22.533,29.50029 -5.0819,-9.48471 -10.34471,-19.10915 -22.533,-29.50029 7.23219,-6.40239 14.83992,-14.93053 22.533,-29.50029 z"
           id="path3630"
           sodipodi:nodetypes="ccccc" />
        <path
           sodipodi:nodetypes="ccccc"
           id="path3684"
           d="m 404.18945,216.98507 c -4.68517,-9.80676 -11.53129,-18.36142 -22.533,-29.50029 13.77917,-11.42216 16.84126,-20.27157 22.533,-29.50029 5.0819,9.48471 10.34471,19.10915 22.533,29.50029 -7.23219,6.40239 -14.83992,14.93053 -22.533,29.50029 z"
           style="fill:#ce4646;fill-opacity:1;stroke:none" />
      </g>
    </g>
    <g
       inkscape:groupmode="layer"
       id="layer14"
       inkscape:label="Spades"
       style="display:none">
      <g
         style="display:inline"
         id="g3670"
         transform="translate(-365.09979,244.32389)">
        <path
           style="fill:#000000;fill-opacity:1;stroke:none"
           d="m 512.8465,-151.82389 c -3.50576,-2.0777 -7.89719,-15.52167 -7.89719,-20.02309 l 1.9585,0 c 0.0889,5.85857 3.7541,10.17884 9.0344,10.12054 10.32429,0 13.14551,-10.59348 8.62375,-20.73932 -3.23246,-7.25288 -21.04287,-31.22692 -21.10133,-31.35809 -6e-5,-1.2e-4 -0.0317,8e-5 -0.0317,0 -0.0585,0.13118 -17.86893,24.10521 -21.10138,31.35809 -4.52175,10.14584 -1.70054,20.73932 8.62377,20.73932 5.2803,0.0583 8.94555,-4.26197 9.03439,-10.12054 l 1.95854,0 c 0,4.50142 -4.39146,17.94539 -7.89724,20.02309 l 18.79536,0 1.3e-4,0 z"
           id="path3628"
           sodipodi:nodetypes="ccccsssscccccc" />
        <path
           sodipodi:nodetypes="ccccsssscccccc"
           id="path3666"
           d="m 396.05102,-28.823929 c 3.50576,-2.0777 7.89719,-15.52167 7.89719,-20.02309 l -1.9585,0 c -0.0889,5.85857 -3.7541,10.17884 -9.0344,10.12054 -10.32429,0 -13.14551,-10.59348 -8.62375,-20.73932 3.23246,-7.25288 21.04287,-31.22692 21.10133,-31.35809 6e-5,-1.2e-4 0.0317,8e-5 0.0317,0 0.0585,0.13118 17.86893,24.10521 21.10138,31.35809 4.52175,10.14584 1.70054,20.73932 -8.62377,20.73932 -5.2803,0.0583 -8.94555,-4.26197 -9.03439,-10.12054 l -1.95854,0 c 0,4.50142 4.39146,17.94539 7.89724,20.02309 l -18.79536,0 -1.3e-4,0 z"
           style="fill:#000000;fill-opacity:1;stroke:none" />
      </g>
    </g>
    <g
       inkscape:groupmode="layer"
       id="layer13"
       inkscape:label="Hearts"
       style="display:none">
      <g
         style="display:inline"
         id="g3654"
         transform="translate(-186.84382,244.68135)">
        <path
           style="fill:#ce4646;fill-opacity:1;stroke:none"
           d="m 310.82968,-211.73702 c -8.54481,0 -14.21249,11.53675 -9.64221,23.86223 4.58583,12.36748 23.38889,35.13777 23.38889,35.13777 0,0 18.80309,-22.77029 23.38892,-35.13777 4.57028,-12.32548 -1.09736,-23.86223 -9.6422,-23.86223 -13.48789,0 -13.74672,11.89835 -13.74672,11.89835 0,0 -0.25877,-11.89835 -13.74668,-11.89835 z"
           id="path3626"
           sodipodi:nodetypes="cscsscc" />
        <path
           id="path3652"
           d="m 240.84399,-90.625688 c 8.54481,0 14.21249,11.536754 9.64221,23.862234 -4.58583,12.36748 -23.38889,35.13777 -23.38889,35.13777 0,0 -18.80309,-22.77029 -23.38892,-35.13777 -4.57028,-12.32548 1.09736,-23.862234 9.6422,-23.862234 13.48789,0 13.74672,11.898354 13.74672,11.898354 0,0 0.25877,-11.898354 13.74668,-11.898354 z"
           style="fill:#ce4646;fill-opacity:1;stroke:none"
           sodipodi:nodetypes="cscsscc" />
      </g>
    </g>
    <g
       inkscape:groupmode="layer"
       id="layer12"
       inkscape:label="Clubs"
       style="display:none"
       sodipodi:insensitive="true">
      <g
         style="display:inline"
         id="g3638"
         transform="translate(-185.17162,-4.501271)">
        <path
           style="fill:#000000;fill-opacity:1;fill-rule:evenodd;stroke:none"
           d="m 323.40043,37.957442 c -6.03649,0 -10.91563,6.122094 -10.91563,13.667715 0,3.98669 1.37721,7.583113 3.5561,10.080716 -1.64208,-1.176816 -3.53781,-1.886277 -5.59697,-1.886277 -6.0365,0 -10.94654,5.819087 -10.94654,12.987429 0,7.16834 4.91004,12.98742 10.94654,12.98742 5.07456,0 9.31901,-4.10976 10.54454,-9.67872 0.0179,0.46129 0.0309,0.92218 0.0309,1.39151 0,8.98042 -3.01822,16.60566 -7.23587,19.45021 l 19.29561,0 c -4.21371,-2.84021 -7.23584,-10.46403 -7.23584,-19.45021 0,-0.46933 0.0126,-0.93022 0.0309,-1.39151 1.22711,5.56972 5.43843,9.67872 10.51365,9.67872 6.03648,0 10.94653,-5.81908 10.94653,-12.98742 0,-7.168342 -4.91005,-12.987429 -10.94653,-12.987429 -2.05917,0 -3.9549,0.709461 -5.59698,1.886277 2.1789,-2.497603 3.55609,-6.094026 3.55609,-10.080716 0,-7.545621 -4.91006,-13.667715 -10.94655,-13.667715 l 5e-5,0 z"
           id="path3632"
           sodipodi:nodetypes="cscssscsccscssscscc" />
        <path
           id="path3636"
           d="m 226.18899,158.04509 c 6.03649,0 10.91563,6.1221 10.91563,13.66772 0,3.98669 -1.37721,7.58311 -3.5561,10.08072 1.64208,-1.17682 3.53781,-1.88628 5.59697,-1.88628 6.0365,0 10.94654,5.81909 10.94654,12.98743 0,7.16834 -4.91004,12.98742 -10.94654,12.98742 -5.07456,0 -9.31901,-4.10976 -10.54454,-9.67872 -0.0179,0.46129 -0.0309,0.92218 -0.0309,1.39151 0,8.98042 3.01822,16.60566 7.23587,19.45021 l -19.29561,0 c 4.21371,-2.84021 7.23584,-10.46403 7.23584,-19.45021 0,-0.46933 -0.0126,-0.93022 -0.0309,-1.39151 -1.22711,5.56972 -5.43843,9.67872 -10.51365,9.67872 -6.03648,0 -10.94653,-5.81908 -10.94653,-12.98742 0,-7.16834 4.91005,-12.98743 10.94653,-12.98743 2.05917,0 3.9549,0.70946 5.59698,1.88628 -2.1789,-2.49761 -3.55609,-6.09403 -3.55609,-10.08072 0,-7.54562 4.91006,-13.66772 10.94655,-13.66772 l -5e-5,0 z"
           style="fill:#000000;fill-opacity:1;fill-rule:evenodd;stroke:none"
           sodipodi:nodetypes="cscssscsccscssscscc" />
      </g>
    </g>
  </g>
  <g
     inkscape:groupmode="layer"
     id="layer8"
     inkscape:label="Values"
     sodipodi:insensitive="true">
    <g
       inkscape:groupmode="layer"
       id="layer15"
       inkscape:label="Red"
       style="display:inline">
      <g
         inkscape:label="King Red"
         id="g3817"
         inkscape:groupmode="layer"
         style="display:inline"
         sodipodi:insensitive="true">
        <path
           style="font-size:36.30025864px;font-style:italic;font-weight:normal;fill:#ce4646;fill-opacity:1;stroke:none;font-family:Bitstream Vera Sans;-inkscape-font-specification:Impact Italic"
           d="m 9.6875,7.53125 0,113.8125 24.375,0 0,-48.78125 9.84375,48.78125 25.1875,0 -15.28125,-62.4375 13.9375,-51.375 -22.875,0 -10.8125,44.21875 0,-44.21875 -24.375,0 z m 158.625,228.9375 -15.28125,-62.4375 13.9375,-51.375 -22.875,0 -10.8125,44.21875 0,-44.21875 -24.375,0 0,113.8125 24.375,0 0,-48.78125 9.84375,48.78125 25.1875,0 z"
           id="text3698"
           sodipodi:nodetypes="cccccccccccccccccccccccc" />
      </g>
      <g
         style="display:none"
         inkscape:groupmode="layer"
         id="g3837"
         inkscape:label="Queen Red">
        <path
           style="font-size:36.30025864px;font-style:italic;font-weight:normal;fill:#ce4646;fill-opacity:1;stroke:none;font-family:Bitstream Vera Sans;-inkscape-font-specification:Impact Italic"
           d="m 37.6875,5.125 c -4.516782,1.162e-4 -8.606467,0.9219903 -12.3125,2.75 -3.706071,1.8282367 -6.738873,4.546984 -9.09375,8.15625 -2.354897,3.562602 -3.915411,7.390723 -4.6875,11.46875 -0.733495,4.03134 -1.125004,9.890709 -1.125,17.625 l 0,35.25 c -4e-6,10.218781 0.663539,17.906273 1.9375,23.0625 1.273949,5.10939 3.898701,9.32813 7.875,12.65625 3.976271,3.32813 8.698249,5.0625 14.21875,5.25 -2.8e-5,4.26562 0.319796,7.23437 0.9375,8.875 0.656251,1.64061 1.904296,2.85936 3.71875,3.65625 1.814388,0.84374 4.935417,1.24999 9.375,1.25 l 18.40625,0 0,-13.78125 -8.4375,0 c -2.818196,0 -4.634203,-0.3125 -5.40625,-0.96875 -0.733536,-0.65625 -1.165481,-2.25 -1.28125,-4.78125 3.82182,-1.12499 6.878518,-2.73437 9.15625,-4.84375 2.316228,-2.15624 3.876742,-5.04686 4.6875,-8.65625 C 66.466889,98.484398 66.874939,91.62503 66.875,81.5 l 0,-37 C 66.874939,37.140709 66.56247,31.609465 65.90625,27.90625 65.288515,24.156347 63.904453,20.562601 61.78125,17.09375 59.69654,13.625108 56.503826,10.750111 52.21875,8.5 47.972186,6.2501151 43.130732,5.1251162 37.6875,5.125 z m 1.09375,19.28125 c 1.505551,9.7e-5 2.505458,0.750096 2.96875,2.25 0.501826,1.453218 0.749964,4.828215 0.75,10.125 l 0,52.3125 c -3.6e-5,6.703151 -0.224279,10.93752 -0.6875,12.71875 -0.463292,1.78127 -1.52753,2.65627 -3.1875,2.65625 -1.62143,2e-5 -2.661773,-0.76561 -3.125,-2.3125 C 35.075319,100.6094 34.843721,96.5469 34.84375,89.9375 l 0,-53.15625 c -2.9e-5,-5.859285 0.34369,-9.390531 1,-10.5625 0.694855,-1.218654 1.663512,-1.812403 2.9375,-1.8125 z m 128.75,215.96875 0,-13.78125 -8.4375,0 c -2.8182,0 -4.6342,-0.3125 -5.40625,-0.96875 -0.73354,-0.65625 -1.16548,-2.25 -1.28125,-4.78125 3.82182,-1.12499 6.87852,-2.73437 9.15625,-4.84375 2.31623,-2.15624 3.87674,-5.04686 4.6875,-8.65625 0.81064,-3.60935 1.21869,-10.46872 1.21875,-20.59375 l 0,-37 c -6e-5,-7.35929 -0.31253,-12.89054 -0.96875,-16.59375 -0.61773,-3.7499 -2.0018,-7.34365 -4.125,-10.8125 -2.08471,-3.46864 -5.27742,-6.34364 -9.5625,-8.59375 -4.24656,-2.24988 -9.08802,-3.37488 -14.53125,-3.375 -4.51678,1.2e-4 -8.60647,0.92199 -12.3125,2.75 -3.70607,1.82824 -6.73887,4.54698 -9.09375,8.15625 -2.3549,3.5626 -3.91541,7.39072 -4.6875,11.46875 -0.73349,4.03134 -1.125,9.89071 -1.125,17.625 l 0,35.25 c 0,10.21878 0.66354,17.90627 1.9375,23.0625 1.27395,5.10939 3.8987,9.32813 7.875,12.65625 3.97627,3.32813 8.69825,5.0625 14.21875,5.25 -3e-5,4.26562 0.3198,7.23437 0.9375,8.875 0.65625,1.64061 1.9043,2.85936 3.71875,3.65625 1.81439,0.84374 4.93542,1.24999 9.375,1.25 l 18.40625,0 z m -28.3125,-30.65625 c -1.62143,2e-5 -2.66177,-0.76561 -3.125,-2.3125 -0.42468,-1.54685 -0.65628,-5.60935 -0.65625,-12.21875 l 0,-53.15625 c -3e-5,-5.85928 0.34369,-9.39053 1,-10.5625 0.69486,-1.21865 1.66351,-1.8124 2.9375,-1.8125 1.50555,1e-4 2.50546,0.7501 2.96875,2.25 0.50183,1.45322 0.74996,4.82821 0.75,10.125 l 0,52.3125 c -4e-5,6.70315 -0.22428,10.93752 -0.6875,12.71875 -0.46329,1.78127 -1.52753,2.65627 -3.1875,2.65625 z"
           id="text3841"
           sodipodi:nodetypes="cscccccsccccccccccsccccccccccsscccccccccccscccccsscccccsccccccccccscccsc" />
      </g>
      <g
         inkscape:label="Jack Red"
         id="g3849"
         inkscape:groupmode="layer"
         style="display:none">
        <path
           style="font-size:36.30025864px;font-style:italic;font-weight:normal;fill:#ce4646;fill-opacity:1;stroke:none;font-family:Bitstream Vera Sans;-inkscape-font-specification:Impact Italic"
           d="m 23.125,7.53125 0,80.0625 c -10e-6,4.312529 -0.09559,7.218777 -0.25,8.71875 -0.154429,1.500024 -0.715036,2.781272 -1.71875,3.8125 -1.003731,1.03127 -2.387792,1.53127 -4.125,1.53125 -0.656284,2e-5 -1.720522,-0.0469 -3.1875,-0.1875 l 0,19.875 12.21875,0 c 5.404646,0 9.46125,-0.48437 12.125,-1.46875 2.702304,-1.03125 4.79953,-2.84375 6.34375,-5.46875 1.582761,-2.62499 2.494442,-5.57811 2.6875,-8.8125 0.192989,-3.28123 0.281215,-10.609349 0.28125,-22 l 0,-76.0625 -24.375,0 z m 119.59375,228.9375 c 5.40465,0 9.46125,-0.48437 12.125,-1.46875 2.7023,-1.03125 4.79953,-2.84375 6.34375,-5.46875 1.58276,-2.62499 2.49444,-5.57811 2.6875,-8.8125 0.19299,-3.28123 0.28122,-10.60935 0.28125,-22 l 0,-76.0625 -24.375,0 0,80.0625 c -1e-5,4.31253 -0.0956,7.21878 -0.25,8.71875 -0.15443,1.50002 -0.71504,2.78127 -1.71875,3.8125 -1.00373,1.03127 -2.38779,1.53127 -4.125,1.53125 -0.65628,2e-5 -1.72052,-0.0469 -3.1875,-0.1875 l 0,19.875 12.21875,0 z"
           id="text3853"
           sodipodi:nodetypes="ccssscccccsccccccsccccsssccc" />
      </g>
      <g
         style="display:none"
         inkscape:groupmode="layer"
         id="g3861"
         inkscape:label="10 Red">
        <path
           style="font-size:29.80582809px;font-style:italic;font-weight:normal;fill:#ce4646;fill-opacity:1;stroke:none;font-family:Bitstream Vera Sans;-inkscape-font-specification:Impact Italic"
           d="m 54.625,5.34375 c -4.242441,1.16e-4 -7.881892,1.5782601 -10.875,4.71875 -2.967101,3.140712 -4.953697,7.297013 -5.96875,12.5 -0.989035,5.203184 -1.468753,13.04703 -1.46875,23.5 l 0,39.71875 c -3e-6,8.0156 0.312845,13.859421 0.9375,17.5625 0.624647,3.65624 1.672698,7.17191 3.15625,10.5 1.483539,3.32811 3.470134,5.78126 5.96875,7.375 2.49859,1.54686 5.632296,2.3125 9.40625,2.3125 2.86296,0 5.464807,-0.75001 7.78125,-2.25 2.316383,-1.49999 4.266506,-3.95314 5.90625,-7.375 1.639672,-3.42184 2.729418,-7.09376 3.25,-11.03125 C 73.239253,98.937548 73.49996,92.656222 73.5,84.03125 l 0,-37.96875 c -4e-5,-8.624859 -0.255524,-14.906186 -0.75,-18.84375 -0.468527,-3.937376 -1.365377,-7.484294 -2.71875,-10.625 -1.353447,-3.140496 -3.392183,-5.781154 -6.125,-7.9375 C 61.173372,6.4532544 58.086585,5.343866 54.625,5.34375 z m -33.75,2.1875 C 16.918861,16.718794 11.125944,22.765743 3.5,25.71875 l 0,13.3125 1.5625,0 c 3.6437941,8.2e-5 5.990156,0.468838 7.03125,1.40625 1.067103,0.890699 1.703245,2.21884 1.9375,4 0.234233,1.781313 0.374989,7.062628 0.375,15.875 l 0,61.03125 15.75,0 0,-113.8125 -9.28125,0 z m 34.09375,15.3125 c 1.197226,9.9e-5 1.937651,0.765733 2.25,2.3125 0.338329,1.500085 0.499976,5.297006 0.5,11.34375 l 0,56.375 c -2.4e-5,5.578111 -0.166894,9.15628 -0.53125,10.75 -0.364403,1.59376 -1.141301,2.40627 -2.3125,2.40625 -1.171242,2e-5 -1.916889,-0.67187 -2.28125,-2.03125 -0.338372,-1.35935 -0.531269,-5.359396 -0.53125,-11.96875 l 0,-55.53125 c -1.9e-5,-5.859246 0.198101,-9.593666 0.5625,-11.1875 0.390388,-1.640517 1.172508,-2.468651 2.34375,-2.46875 z m 100.9375,215.8125 c 2.86296,0 5.46481,-0.75 7.78125,-2.25 2.31638,-1.5 4.29776,-3.95312 5.9375,-7.375 1.63967,-3.42186 2.72942,-7.09374 3.25,-11.03125 0.5205,-3.93748 0.78121,-10.21872 0.78125,-18.84375 l 0,-37.96875 c -4e-5,-8.62492 -0.25552,-14.90616 -0.75,-18.84375 -0.46853,-3.9374 -1.39663,-7.48427 -2.75,-10.625 -1.35345,-3.14052 -3.39218,-5.78114 -6.125,-7.9375 -2.73288,-2.20301 -5.81966,-3.31238 -9.28125,-3.3125 -4.24244,1.2e-4 -7.85064,1.57824 -10.84375,4.71875 -2.9671,3.14073 -4.9537,7.29698 -5.96875,12.5 -0.98903,5.20322 -1.5,13.04696 -1.5,23.5 l 0,39.71875 c 0,8.01565 0.31285,13.8594 0.9375,17.5625 0.62465,3.65626 1.6727,7.17189 3.15625,10.5 1.48354,3.32813 3.47013,5.78125 5.96875,7.375 2.49859,1.54687 5.6323,2.3125 9.40625,2.3125 z m -25.59375,-2.1875 0,-113.8125 -9.28125,0 c -3.95614,9.18761 -9.74906,15.23447 -17.375,18.1875 l 0,13.3125 1.5625,0 c 3.64379,8e-5 5.99016,0.46883 7.03125,1.40625 1.0671,0.89071 1.70324,2.21883 1.9375,4 0.23423,1.78133 0.34374,7.06257 0.34375,15.875 l 0,61.03125 15.78125,0 z m 24.71875,-15.3125 c -1.17124,2e-5 -1.94814,-0.67186 -2.3125,-2.03125 -0.33837,-1.35936 -0.50002,-5.35935 -0.5,-11.96875 l 0,-55.53125 c -2e-5,-5.85928 0.16685,-9.59366 0.53125,-11.1875 0.39039,-1.64053 1.17251,-2.46865 2.34375,-2.46875 1.19723,1e-4 1.9689,0.76572 2.28125,2.3125 0.33833,1.50009 0.49998,5.29697 0.5,11.34375 l 0,56.375 c -2e-5,5.57815 -0.19814,9.15627 -0.5625,10.75 -0.3644,1.59377 -1.11005,2.40627 -2.28125,2.40625 z"
           id="text3865"
           sodipodi:nodetypes="ccccccscsssscccscccccccscccccccccssccccccssscccscscccccscccccccccsccccccccscccsc" />
      </g>
      <g
         inkscape:label="9 Red"
         id="g3873"
         inkscape:groupmode="layer"
         style="display:none">
        <path
           style="font-size:36.30025864px;font-style:italic;font-weight:normal;fill:#ce4646;fill-opacity:1;stroke:none;font-family:Bitstream Vera Sans;-inkscape-font-specification:Impact Italic"
           d="m 38.09375,5.34375 c -5.057248,1.16e-4 -9.521902,0.9219901 -13.34375,2.75 -3.821884,1.8282365 -6.806895,4.390734 -8.96875,7.71875 -2.161872,3.281352 -3.522039,6.859474 -4.0625,10.75 -0.501866,3.890716 -0.750004,9.843835 -0.75,17.8125 l 0,9.0625 c -4e-6,6.703186 0.455836,12.031306 1.34375,15.96875 0.887903,3.937548 2.968588,7.312545 6.25,10.125 3.281388,2.812539 7.058605,4.218788 11.34375,4.21875 3.435796,3.8e-5 6.308686,-0.749962 8.625,-2.25 2.316251,-1.546834 4.060572,-3.859331 5.21875,-6.90625 l 0,18.15625 c -3.7e-5,4.265649 -0.04047,7.093772 -0.15625,8.5 -0.07725,1.40627 -0.509191,2.54689 -1.28125,3.4375 -0.77213,0.89064 -1.772037,1.34377 -2.96875,1.34375 -1.428407,2e-5 -2.556976,-0.46873 -3.40625,-1.40625 -0.810728,-0.93748 -1.259214,-2.07811 -1.375,-3.4375 C 34.446658,99.781272 34.374972,96.4219 34.375,91.125 l -23.40625,0 c -4e-6,7.125023 0.904322,13.03127 2.71875,17.71875 1.853019,4.68751 4.893176,8.32813 9.0625,10.90625 4.207897,2.57812 9.586063,3.84375 16.1875,3.84375 5.327417,0 10.04021,-0.98438 14.09375,-3 4.053448,-2.0625 7.238807,-5.14062 9.59375,-9.21875 2.393436,-4.07811 3.753602,-8.39061 4.0625,-12.9375 0.308778,-4.593723 0.46869,-13.671838 0.46875,-27.21875 l 0,-15.8125 C 67.15619,42.890703 66.972383,34.453212 66.625,30.09375 66.277498,25.734471 65.012912,21.59385 62.8125,17.65625 60.611976,13.671983 57.483593,10.609486 53.46875,8.5 49.453814,6.3907399 44.347681,5.343866 38.09375,5.34375 z m 1.03125,17.5 c 1.65997,9.9e-5 2.836329,0.765723 3.53125,2.3125 C 43.389704,26.70322 43.749963,29.984466 43.75,35 l 0,20.625 c -3.7e-5,4.171937 -0.384192,6.984434 -1.15625,8.4375 -0.733525,1.406306 -1.909885,2.093805 -3.53125,2.09375 -1.080964,5.5e-5 -2.145202,-0.562444 -3.1875,-1.6875 -1.003751,-1.124942 -1.500028,-4.062439 -1.5,-8.84375 l 0,-21.3125 c -2.8e-5,-5.249908 0.544039,-8.453029 1.625,-9.625 1.080903,-1.218652 2.121245,-1.843651 3.125,-1.84375 z m 101.6875,217.8125 c 5.32742,0 10.04021,-0.98438 14.09375,-3 4.05345,-2.0625 7.23881,-5.14062 9.59375,-9.21875 2.39344,-4.07811 3.7536,-8.39061 4.0625,-12.9375 0.30878,-4.59372 0.46869,-13.67184 0.46875,-27.21875 l 0,-15.8125 c -6e-5,-12.51555 -0.18387,-20.95304 -0.53125,-25.3125 -0.3475,-4.35928 -1.61209,-8.4999 -3.8125,-12.4375 -2.20052,-3.98427 -5.32891,-7.04676 -9.34375,-9.15625 -4.01494,-2.10926 -9.12107,-3.15613 -15.375,-3.15625 -5.05725,1.2e-4 -9.5219,0.92199 -13.34375,2.75 -3.82188,1.82824 -6.8069,4.39073 -8.96875,7.71875 -2.16187,3.28135 -3.52204,6.85947 -4.0625,10.75 -0.50187,3.89072 -0.75,9.84383 -0.75,17.8125 l 0,9.0625 c 0,6.70319 0.45584,12.03131 1.34375,15.96875 0.8879,3.93755 2.96859,7.31254 6.25,10.125 3.28139,2.81254 7.0586,4.21879 11.34375,4.21875 3.4358,4e-5 6.30869,-0.74996 8.625,-2.25 2.31625,-1.54683 4.06057,-3.85933 5.21875,-6.90625 l 0,18.15625 c -4e-5,4.26565 -0.0405,7.09377 -0.15625,8.5 -0.0772,1.40627 -0.50919,2.54689 -1.28125,3.4375 -0.77213,0.89064 -1.77204,1.34377 -2.96875,1.34375 -1.42841,2e-5 -2.55698,-0.46873 -3.40625,-1.40625 -0.81073,-0.93748 -1.25921,-2.07811 -1.375,-3.4375 -0.11584,-1.40623 -0.18753,-4.7656 -0.1875,-10.0625 l -23.40625,0 c 0,7.12502 0.90432,13.03127 2.71875,17.71875 1.85302,4.68751 4.89318,8.32813 9.0625,10.90625 4.2079,2.57812 9.58606,3.84375 16.1875,3.84375 z m 0.125,-57.4375 c -1.08096,6e-5 -2.1452,-0.56244 -3.1875,-1.6875 -1.00375,-1.12494 -1.50003,-4.06244 -1.5,-8.84375 l 0,-21.3125 c -3e-5,-5.24991 0.54404,-8.45303 1.625,-9.625 1.0809,-1.21865 2.12125,-1.84365 3.125,-1.84375 1.65997,1e-4 2.83633,0.76572 3.53125,2.3125 0.73345,1.54697 1.09371,4.82822 1.09375,9.84375 l 0,20.625 c -4e-5,4.17194 -0.38419,6.98443 -1.15625,8.4375 -0.73353,1.40631 -1.90988,2.09381 -3.53125,2.09375 z"
           id="text3877"
           sodipodi:nodetypes="csccccsssccccsscsccccscccccscsccccccscccccccccccscsssccccsssccccsscsccccccccccsccccc" />
      </g>
      <g
         style="display:none"
         inkscape:groupmode="layer"
         id="g3885"
         inkscape:label="8 Red">
        <path
           style="font-size:36.30025864px;font-style:italic;font-weight:normal;fill:#ce4646;fill-opacity:1;stroke:none;font-family:Bitstream Vera Sans;-inkscape-font-specification:Impact Italic"
           d="m 38.25,5.34375 c -8.917719,1.16e-4 -15.615615,2.4532385 -20.09375,7.375 -4.478157,4.875104 -6.718755,12.203221 -6.71875,22 -5e-6,5.671956 0.727869,10.359451 2.15625,14.0625 1.466972,3.656319 3.635884,6.343816 6.53125,8.03125 -4.593973,3.046937 -7.330847,7.093807 -8.21875,12.15625 -0.849309,5.062547 -1.281254,11.046916 -1.28125,17.9375 -4e-6,10.265649 0.887782,17.59377 2.625,22 1.77581,4.40626 4.665241,7.95313 8.71875,10.625 4.053479,2.67187 9.582371,4 16.53125,4 7.141839,0 12.815934,-1.39063 17.0625,-4.15625 4.246469,-2.8125 7.095464,-6.39062 8.5625,-10.75 1.466922,-4.35936 2.21869,-11.124976 2.21875,-20.3125 -6e-5,-12.609329 -0.928281,-20.578071 -2.78125,-23.90625 -1.853083,-3.37494 -4.50173,-5.906187 -7.9375,-7.59375 4.014841,-2.671808 6.663488,-5.37493 7.9375,-8.09375 1.312503,-2.718675 1.968691,-7.140545 1.96875,-13.28125 C 65.531191,25.781345 63.562627,18.359478 59.625,13.15625 55.687267,7.9532384 48.557425,5.343866 38.25,5.34375 z m 0.1875,17.5 c 1.582761,9.9e-5 2.646999,0.640723 3.1875,1.90625 0.579036,1.218845 0.843714,3.750093 0.84375,7.59375 l 0,7.8125 c -3.6e-5,4.031327 -0.272069,6.687574 -0.8125,8 -0.540501,1.265697 -1.580843,1.906321 -3.125,1.90625 -1.467011,7.1e-5 -2.507353,-0.656178 -3.125,-1.96875 C 34.788546,46.781325 34.499972,44.421952 34.5,41 l 0,-8.65625 c -2.8e-5,-3.656157 0.272006,-6.156155 0.8125,-7.46875 0.540437,-1.359277 1.58078,-2.031151 3.125,-2.03125 z m -0.0625,46 c 1.582761,5.3e-5 2.735226,0.703177 3.46875,2.15625 0.733454,1.406299 1.093714,4.296921 1.09375,8.65625 l 0,14.5625 c -3.6e-5,5.015647 -0.295965,8.23439 -0.875,9.6875 -0.579106,1.40627 -1.68378,2.12502 -3.34375,2.125 -1.62143,2e-5 -2.821684,-0.71873 -3.59375,-2.125 -0.733518,-1.40623 -1.093777,-4.546853 -1.09375,-9.46875 l 0,-14.78125 C 34.031223,75.203171 34.343692,72.296924 35,70.9375 c 0.694857,-1.406198 1.83078,-2.093697 3.375,-2.09375 z m 101.15625,171.8125 c 7.14184,0 12.81593,-1.39063 17.0625,-4.15625 4.24647,-2.8125 7.09546,-6.39062 8.5625,-10.75 1.46692,-4.35936 2.21869,-11.12498 2.21875,-20.3125 -6e-5,-12.60933 -0.92828,-20.57807 -2.78125,-23.90625 -1.85308,-3.37494 -4.50173,-5.90619 -7.9375,-7.59375 4.01484,-2.67181 6.66349,-5.37493 7.9375,-8.09375 1.3125,-2.71867 1.96869,-7.14055 1.96875,-13.28125 -6e-5,-9.65615 -1.96862,-17.07802 -5.90625,-22.28125 -3.93773,-5.20301 -11.06757,-7.81238 -21.375,-7.8125 -8.91772,1.2e-4 -15.61562,2.45324 -20.09375,7.375 -4.47816,4.8751 -6.71875,12.20322 -6.71875,22 0,5.67196 0.72787,10.35945 2.15625,14.0625 1.46697,3.65632 3.63588,6.34382 6.53125,8.03125 -4.59397,3.04694 -7.33085,7.09381 -8.21875,12.15625 -0.84931,5.06255 -1.28125,11.04692 -1.28125,17.9375 0,10.26565 0.88778,17.59377 2.625,22 1.77581,4.40626 4.66524,7.95313 8.71875,10.625 4.05348,2.67187 9.58237,4 16.53125,4 z m 0.21875,-17.5 c -1.62143,2e-5 -2.82168,-0.71873 -3.59375,-2.125 -0.73352,-1.40623 -1.09378,-4.54685 -1.09375,-9.46875 l 0,-14.78125 c -3e-5,-4.45308 0.31244,-7.35933 0.96875,-8.71875 0.69486,-1.4062 1.83078,-2.0937 3.375,-2.09375 1.58276,5e-5 2.73523,0.70318 3.46875,2.15625 0.73345,1.4063 1.09371,4.29692 1.09375,8.65625 l 0,14.5625 c -4e-5,5.01565 -0.29596,8.23439 -0.875,9.6875 -0.57911,1.40627 -1.68378,2.12502 -3.34375,2.125 z m -0.1875,-55.96875 c -1.46701,7e-5 -2.50735,-0.65618 -3.125,-1.96875 -0.6177,-1.31243 -0.90628,-3.6718 -0.90625,-7.09375 l 0,-8.65625 c -3e-5,-3.65616 0.27201,-6.15615 0.8125,-7.46875 0.54044,-1.35928 1.58078,-2.03115 3.125,-2.03125 1.58276,1e-4 2.647,0.64072 3.1875,1.90625 0.57904,1.21885 0.84371,3.75009 0.84375,7.59375 l 0,7.8125 c -4e-5,4.03133 -0.27207,6.68757 -0.8125,8 -0.5405,1.2657 -1.58084,1.90632 -3.125,1.90625 z"
           id="text3889"
           sodipodi:nodetypes="ccscccscsscsscccssccccccsscccccccccscccccccsscccssscscccscsccccccsccccccscccsccccc" />
      </g>
      <g
         inkscape:label="7 Red"
         id="g3897"
         inkscape:groupmode="layer"
         style="display:none">
        <path
           style="font-size:36.30025864px;font-style:italic;font-weight:normal;fill:#ce4646;fill-opacity:1;stroke:none;font-family:Bitstream Vera Sans;-inkscape-font-specification:Impact Italic"
           d="m 15.5,7.53125 0,20.4375 23.125,0 -16.625,93.375 23.28125,0 14.9375,-89 0,-24.8125 -44.71875,0 z m 132.0625,228.9375 14.9375,-89 0,-24.8125 -44.71875,0 0,20.4375 23.125,0 -16.625,93.375 23.28125,0 z"
           id="text3901"
           sodipodi:nodetypes="cccccccccccccccc" />
      </g>
      <g
         style="display:none"
         inkscape:groupmode="layer"
         id="g3909"
         inkscape:label="6 Red">
        <path
           style="font-size:36.30025864px;font-style:italic;font-weight:normal;fill:#ce4646;fill-opacity:1;stroke:none;font-family:Bitstream Vera Sans;-inkscape-font-specification:Impact Italic"
           d="M 39.25,5.28125 C 33.922518,5.2813661 29.185831,6.312615 25.09375,8.375 21.040238,10.390736 17.854878,13.421983 15.5,17.5 c -2.354896,4.078225 -3.715062,8.406345 -4.0625,13 -0.308842,4.546961 -0.468754,13.609452 -0.46875,27.15625 l 0,15.75 c -4e-6,12.562536 0.183803,21.015652 0.53125,25.375 0.386042,4.35939 1.650628,8.54689 3.8125,12.53125 2.20046,3.93751 5.328843,6.95313 9.34375,9.0625 4.014872,2.10937 9.1449,3.15625 15.4375,3.15625 5.057183,0 9.497942,-0.92188 13.28125,-2.75 3.821819,-1.82812 6.806831,-4.375 8.96875,-7.65625 2.200413,-3.32811 3.560579,-6.92186 4.0625,-10.8125 0.501802,-3.890602 0.74994,-9.843721 0.75,-17.8125 l 0,-9.0625 c -6e-5,-6.703072 -0.455901,-12.031192 -1.34375,-15.96875 -0.887967,-3.937434 -2.968653,-7.312431 -6.25,-10.125 -3.281453,-2.812425 -7.058669,-4.218674 -11.34375,-4.21875 -3.397256,7.6e-5 -6.24625,0.79695 -8.5625,2.34375 -2.316315,1.500072 -4.084532,3.765695 -5.28125,6.8125 l 0,-18.15625 c -2.8e-5,-4.265536 0.07166,-7.093658 0.1875,-8.5 0.115786,-1.406155 0.540377,-2.546779 1.3125,-3.4375 0.772065,-0.890527 1.771972,-1.343651 2.96875,-1.34375 1.428342,9.9e-5 2.533016,0.468848 3.34375,1.40625 0.849268,0.937596 1.329004,2.125095 1.40625,3.53125 0.115777,1.359467 0.156213,4.671964 0.15625,9.96875 l 23.40625,0 C 67.15619,30.625091 66.251864,24.718847 64.4375,20.03125 62.623021,15.343856 59.614114,11.703235 55.40625,9.125 51.198288,6.5469898 45.812768,5.2813661 39.25,5.28125 z m -0.1875,57.4375 c 1.65997,5.9e-5 2.860225,0.750058 3.59375,2.25 0.733454,1.500055 1.093713,4.250052 1.09375,8.28125 l 0,21.3125 c -3.7e-5,5.250022 -0.544104,8.50002 -1.625,9.71875 -1.080967,1.17189 -2.12131,1.75002 -3.125,1.75 -1.660035,2e-5 -2.860289,-0.76561 -3.59375,-2.3125 C 34.711337,102.17189 34.374972,98.890648 34.375,93.875 l 0,-20.625 c -2.8e-5,-4.171823 0.360232,-6.937445 1.09375,-8.34375 0.772065,-1.453067 1.97232,-2.187441 3.59375,-2.1875 z m 102.90625,178 c 5.05718,0 9.49794,-0.92188 13.28125,-2.75 3.82182,-1.82812 6.80683,-4.375 8.96875,-7.65625 2.20041,-3.32811 3.56058,-6.92186 4.0625,-10.8125 0.5018,-3.8906 0.74994,-9.84372 0.75,-17.8125 l 0,-9.0625 c -6e-5,-6.70307 -0.4559,-12.03119 -1.34375,-15.96875 -0.88797,-3.93743 -2.96865,-7.31243 -6.25,-10.125 -3.28145,-2.81243 -7.05867,-4.21867 -11.34375,-4.21875 -3.39726,8e-5 -6.24625,0.79695 -8.5625,2.34375 -2.31632,1.50007 -4.08453,3.7657 -5.28125,6.8125 l 0,-18.15625 c -3e-5,-4.26554 0.0717,-7.09366 0.1875,-8.5 0.11579,-1.40615 0.54038,-2.54678 1.3125,-3.4375 0.77207,-0.89053 1.77197,-1.34365 2.96875,-1.34375 1.42834,1e-4 2.53302,0.46885 3.34375,1.40625 0.84927,0.9376 1.329,2.12509 1.40625,3.53125 0.11578,1.35947 0.15621,4.67196 0.15625,9.96875 l 23.40625,0 c -6e-5,-7.12491 -0.90439,-13.03115 -2.71875,-17.71875 -1.81448,-4.68739 -4.82339,-8.32802 -9.03125,-10.90625 -4.20796,-2.57801 -9.59348,-3.84363 -16.15625,-3.84375 -5.32748,1.2e-4 -10.06417,1.03137 -14.15625,3.09375 -4.05351,2.01574 -7.23887,5.04698 -9.59375,9.125 -2.3549,4.07822 -3.71506,8.40635 -4.0625,13 -0.30884,4.54696 -0.46875,13.60945 -0.46875,27.15625 l 0,15.75 c 0,12.56254 0.1838,21.01565 0.53125,25.375 0.38604,4.35939 1.65063,8.54689 3.8125,12.53125 2.20046,3.93751 5.32884,6.95313 9.34375,9.0625 4.01487,2.10937 9.1449,3.15625 15.4375,3.15625 z m -1.09375,-17.5 c -1.66003,2e-5 -2.86029,-0.76561 -3.59375,-2.3125 -0.69491,-1.54686 -1.03128,-4.8281 -1.03125,-9.84375 l 0,-20.625 c -3e-5,-4.17182 0.36023,-6.93744 1.09375,-8.34375 0.77207,-1.45307 1.97232,-2.18744 3.59375,-2.1875 1.65997,6e-5 2.86022,0.75006 3.59375,2.25 0.73345,1.50005 1.09371,4.25005 1.09375,8.28125 l 0,21.3125 c -4e-5,5.25002 -0.5441,8.50002 -1.625,9.71875 -1.08097,1.17189 -2.12131,1.75002 -3.125,1.75 z"
           id="text3913"
           sodipodi:nodetypes="ccscccccssccsccssscccsssccccssccscccsccccccccsccssscccsssccccssscscccccsccccccsscccc" />
      </g>
      <g
         inkscape:label="5 Red"
         id="g2891"
         inkscape:groupmode="layer"
         style="display:none">
        <path
           style="font-size:36.30025864px;font-style:italic;font-weight:normal;fill:#ce4646;fill-opacity:1;stroke:none;font-family:Bitstream Vera Sans;-inkscape-font-specification:Impact Italic"
           d="m 11.84375,7.53125 -0.96875,57.375 23.15625,0 c -2.7e-5,-3.328065 0.0882,-5.453063 0.28125,-6.34375 0.231601,-0.937436 0.703982,-1.79681 1.4375,-2.59375 0.73346,-0.796809 1.669037,-1.187433 2.75,-1.1875 1.698575,6.7e-5 2.891475,0.765691 3.625,2.3125 0.733454,1.546938 1.093714,4.453185 1.09375,8.71875 l 0,22.5625 C 43.1415,96.2969 43.077173,100.78127 43,101.8125 c -0.03864,1.03127 -0.422796,1.98439 -1.15625,2.875 -0.69492,0.89064 -1.623141,1.34377 -2.78125,1.34375 -2.509338,2e-5 -3.981626,-1.56248 -4.40625,-4.65625 -0.42468,-3.093727 -0.625027,-8.296847 -0.625,-15.65625 l 0,-7.125 -23.40625,0 0,6.1875 c -4e-6,10.593776 0.976008,18.43752 2.90625,23.5 1.930229,5.06251 5.187273,8.89063 9.78125,11.46875 4.593944,2.53125 9.915133,3.78125 15.9375,3.78125 5.366022,0 9.887652,-0.84375 13.59375,-2.53125 3.74461,-1.73437 6.665291,-4.1875 8.75,-7.375 2.084599,-3.23436 3.444766,-6.71874 4.0625,-10.46875 0.656221,-3.796853 0.96869,-9.749972 0.96875,-17.8125 l 0,-16.21875 c -6e-5,-12.468685 -1.6488,-20.890552 -4.96875,-25.25 -3.281455,-4.406168 -8.146804,-6.624916 -14.59375,-6.625 -5.713537,8.4e-5 -10.402434,2.609456 -14.03125,7.8125 l 0,-19.34375 29.03125,0 0,-18.1875 -50.21875,0 z M 142,238.46875 c 5.36602,0 9.88765,-0.84375 13.59375,-2.53125 3.74461,-1.73437 6.66529,-4.1875 8.75,-7.375 2.0846,-3.23436 3.44477,-6.71874 4.0625,-10.46875 0.65622,-3.79685 0.96869,-9.74997 0.96875,-17.8125 l 0,-16.21875 c -6e-5,-12.46869 -1.6488,-20.89055 -4.96875,-25.25 -3.28145,-4.40617 -8.1468,-6.62492 -14.59375,-6.625 -5.71354,8e-5 -10.40243,2.60946 -14.03125,7.8125 l 0,-19.34375 29.03125,0 0,-18.1875 -50.21875,0 -0.96875,57.375 23.15625,0 c -3e-5,-3.32807 0.0882,-5.45306 0.28125,-6.34375 0.2316,-0.93744 0.70398,-1.79681 1.4375,-2.59375 0.73346,-0.79681 1.66904,-1.18743 2.75,-1.1875 1.69858,7e-5 2.89148,0.76569 3.625,2.3125 0.73345,1.54694 1.09371,4.45318 1.09375,8.71875 l 0,22.5625 c -0.0772,7.9219 -0.14158,12.40627 -0.21875,13.4375 -0.0386,1.03127 -0.4228,1.98439 -1.15625,2.875 -0.69492,0.89064 -1.62314,1.34377 -2.78125,1.34375 -2.50934,2e-5 -3.98163,-1.56248 -4.40625,-4.65625 -0.42468,-3.09373 -0.62503,-8.29685 -0.625,-15.65625 l 0,-7.125 -23.40625,0 0,6.1875 c 0,10.59378 0.97601,18.43752 2.90625,23.5 1.93023,5.06251 5.18727,8.89063 9.78125,11.46875 4.59394,2.53125 9.91513,3.78125 15.9375,3.78125 z"
           id="text2895"
           sodipodi:nodetypes="ccccsssccccssccccscsccccccsccccccccccccsccccccccsssccccssccccscc" />
      </g>
      <g
         style="display:none"
         inkscape:groupmode="layer"
         id="g2903"
         inkscape:label="4 Red">
        <path
           style="font-size:36.30025864px;font-style:italic;font-weight:normal;fill:#ce4646;fill-opacity:1;stroke:none;font-family:Bitstream Vera Sans;-inkscape-font-specification:Impact Italic"
           d="M 29.71875,7.53125 9.5,81.90625 l 0,19.40625 27.8125,0 0,20.03125 23.375,0 0,-20.03125 6.65625,0 0,-19.40625 -6.65625,0 0,-74.375 -30.96875,0 z m 7.59375,25.9375 0,48.4375 -10.3125,0 10.3125,-48.4375 z m 124.53125,203 0,-20.03125 6.65625,0 0,-19.40625 -6.65625,0 0,-74.375 -30.96875,0 -20.21875,74.375 0,19.40625 27.8125,0 0,20.03125 23.375,0 z m -23.375,-39.4375 -10.3125,0 10.3125,-48.4375 0,48.4375 z"
           id="text2907"
           sodipodi:nodetypes="cccccccccccccccccccccccccccccccc" />
      </g>
      <g
         inkscape:label="3 Red"
         id="g2915"
         inkscape:groupmode="layer"
         style="display:none">
        <path
           style="font-size:36.30025864px;font-style:italic;font-weight:normal;fill:#ce4646;fill-opacity:1;stroke:none;font-family:Bitstream Vera Sans;-inkscape-font-specification:Impact Italic"
           d="m 37.9375,5.28125 c -8.917716,1.161e-4 -15.407911,1.9063641 -19.5,5.75 -4.092108,3.796982 -6.156253,11.125099 -6.15625,22 l 0,9.71875 23.40625,0 0,-9.34375 c -2.7e-5,-4.359283 0.295902,-7.218655 0.875,-8.53125 0.617648,-1.359277 1.722321,-2.031151 3.34375,-2.03125 1.428343,9.9e-5 2.468686,0.640723 3.125,1.90625 0.69485,1.26572 1.031215,3.890718 1.03125,7.875 l 0,6.3125 c -3.5e-5,3.703204 -0.264714,6.421951 -0.84375,8.15625 -0.579105,1.734448 -1.531222,2.859446 -2.84375,3.375 -1.312592,0.515695 -4.753444,0.78132 -10.3125,0.78125 l 0,16.53125 c 4.555334,0.0938 7.635927,0.468803 9.21875,1.125 1.582762,0.609427 2.783017,1.921926 3.59375,3.9375 0.810665,2.015672 1.187465,5.203168 1.1875,9.5625 l 0,7.875 c -3.5e-5,7.125024 -0.264714,11.53127 -0.84375,13.21875 -0.579105,1.68752 -1.77936,2.53127 -3.59375,2.53125 -1.660033,2e-5 -2.748166,-0.65623 -3.25,-1.96875 -0.463284,-1.35936 -0.687527,-4.515603 -0.6875,-9.4375 l 0,-18.46875 -23.40625,0 0,9 c -3e-6,10.828151 0.656185,18.43752 1.96875,22.84375 1.351159,4.35938 4.135823,8.04688 8.34375,11.09375 4.246504,3 10.087865,4.5 17.5,4.5 6.524164,0 11.861894,-1.26563 16.03125,-3.84375 4.169261,-2.625 7.113837,-6.43749 8.8125,-11.40625 C 66.636051,103.32814 67.468691,96.2969 67.46875,87.25 67.468691,75.062546 66.612156,67.343804 64.875,64.0625 63.137732,60.734436 60.489085,58.328188 56.9375,56.875 c 3.59019,-2.343683 6.10282,-4.906181 7.53125,-7.71875 1.428318,-2.8593 2.124942,-7.49992 2.125,-13.875 C 66.593692,25.85947 64.601233,18.515728 60.625,13.21875 56.648663,7.9219884 49.094231,5.2813661 37.9375,5.28125 z m 102.40625,235.4375 c 6.52416,0 11.86189,-1.26563 16.03125,-3.84375 4.16926,-2.625 7.11384,-6.43749 8.8125,-11.40625 1.69855,-5.01561 2.53119,-12.04685 2.53125,-21.09375 -6e-5,-12.18745 -0.85659,-19.9062 -2.59375,-23.1875 -1.73727,-3.32806 -4.38592,-5.73431 -7.9375,-7.1875 3.59019,-2.34368 6.10282,-4.90618 7.53125,-7.71875 1.42832,-2.8593 2.12494,-7.49992 2.125,-13.875 -6e-5,-9.42178 -1.99252,-16.76552 -5.96875,-22.0625 -3.97634,-5.29676 -11.53077,-7.93738 -22.6875,-7.9375 -8.91772,1.2e-4 -15.40791,1.90636 -19.5,5.75 -4.09211,3.79698 -6.15625,11.1251 -6.15625,22 l 0,9.71875 23.40625,0 0,-9.34375 c -3e-5,-4.35928 0.2959,-7.21865 0.875,-8.53125 0.61765,-1.35928 1.72232,-2.03115 3.34375,-2.03125 1.42834,1e-4 2.46869,0.64072 3.125,1.90625 0.69485,1.26572 1.03121,3.89072 1.03125,7.875 l 0,6.3125 c -4e-5,3.7032 -0.26471,6.42195 -0.84375,8.15625 -0.5791,1.73445 -1.53122,2.85945 -2.84375,3.375 -1.31259,0.5157 -4.75344,0.78132 -10.3125,0.78125 l 0,16.53125 c 4.55533,0.0938 7.63593,0.4688 9.21875,1.125 1.58276,0.60943 2.78302,1.92193 3.59375,3.9375 0.81066,2.01567 1.18746,5.20317 1.1875,9.5625 l 0,7.875 c -4e-5,7.12502 -0.26471,11.53127 -0.84375,13.21875 -0.5791,1.68752 -1.77936,2.53127 -3.59375,2.53125 -1.66003,2e-5 -2.74817,-0.65623 -3.25,-1.96875 -0.46328,-1.35936 -0.68753,-4.5156 -0.6875,-9.4375 l 0,-18.46875 -23.40625,0 0,9 c 0,10.82815 0.65618,18.43752 1.96875,22.84375 1.35116,4.35938 4.13582,8.04688 8.34375,11.09375 4.2465,3 10.08787,4.5 17.5,4.5 z"
           id="text2919"
           sodipodi:nodetypes="cccccccscccsscccsccsscccccccsccscccssccccscccsssccccccscccsscccsccsscccccccc" />
      </g>
      <g
         style="display:none"
         inkscape:groupmode="layer"
         id="g2927"
         inkscape:label="2 Red">
        <path
           style="font-size:36.30025864px;font-style:italic;font-weight:normal;fill:#ce4646;fill-opacity:1;stroke:none;font-family:Bitstream Vera Sans;-inkscape-font-specification:Impact Italic"
           d="m 39.25,5.34375 c -4.748407,1.16e-4 -8.821552,0.9219901 -12.21875,2.75 -3.39723,1.8282365 -6.157999,4.500109 -8.28125,8.0625 -2.123267,3.562602 -3.459538,7.203223 -4,10.90625 -0.54047,3.656341 -0.812503,8.687586 -0.8125,15.0625 l 0,4.125 20.96875,0 0,-10.8125 c -2.4e-5,-5.015534 0.431921,-8.374906 1.28125,-10.0625 0.887883,-1.687402 2.192904,-2.531151 3.96875,-2.53125 1.775787,9.9e-5 3.088163,0.765723 3.9375,2.3125 0.887875,1.500095 1.343715,3.812592 1.34375,6.90625 -3.5e-5,4.031335 -1.448427,9.65633 -4.34375,16.875 -2.856779,7.17194 -11.907394,25.906296 -27.15625,56.1875 l 0,16.21875 51.46875,0 0,-19.40625 -25.65625,0 C 52.875571,78.359418 60.773723,62.953183 63.4375,55.6875 66.139777,48.421948 67.499943,41.515705 67.5,35 67.499943,26.42197 65.099434,19.359477 60.3125,13.78125 55.564072,8.1563631 48.553706,5.343866 39.25,5.34375 z m 124.71875,233.3125 0,-19.40625 -25.65625,0 C 151.43807,195.67192 159.33622,180.26568 162,173 c 2.70228,-7.26555 4.06244,-14.1718 4.0625,-20.6875 -6e-5,-8.57803 -2.40057,-15.64052 -7.1875,-21.21875 -4.74843,-5.62489 -11.75879,-8.43738 -21.0625,-8.4375 -4.74841,1.2e-4 -8.82155,0.92199 -12.21875,2.75 -3.39723,1.82824 -6.158,4.50011 -8.28125,8.0625 -2.12327,3.5626 -3.45954,7.20322 -4,10.90625 -0.54047,3.65634 -0.8125,8.68759 -0.8125,15.0625 l 0,4.125 20.96875,0 0,-10.8125 c -2e-5,-5.01553 0.43192,-8.37491 1.28125,-10.0625 0.88788,-1.6874 2.1929,-2.53115 3.96875,-2.53125 1.77579,1e-4 3.08816,0.76572 3.9375,2.3125 0.88787,1.50009 1.34372,3.81259 1.34375,6.90625 -3e-5,4.03134 -1.44843,9.65633 -4.34375,16.875 -2.85678,7.17194 -11.90739,25.9063 -27.15625,56.1875 l 0,16.21875 51.46875,0 z"
           id="text2931"
           sodipodi:nodetypes="cssccccccscscccccccsccccccscsssccccccscscccc" />
      </g>
      <g
         inkscape:label="Ace Red"
         id="g2939"
         inkscape:groupmode="layer"
         style="display:none">
        <path
           style="font-size:36.30025864px;font-style:italic;font-weight:normal;fill:#ce4646;fill-opacity:1;stroke:none;font-family:Bitstream Vera Sans;-inkscape-font-specification:Impact Italic"
           d="m 20.5,7.53125 -12.375,113.8125 25.25,0 1.4375,-20.4375 8.75,0 1.21875,20.4375 24.9375,0 -13.9375,-113.8125 -35.28125,0 z m 18.65625,25.4375 c 1.23532,18.93757 2.483365,34.859428 3.71875,47.75 l -8.34375,0 c 0.61765,-10.078074 2.154268,-25.999933 4.625,-47.75 z m 69.125,203.5 13.9375,-113.8125 35.28125,0 12.375,113.8125 -25.25,0 -1.4375,-20.4375 -8.75,0 -1.21875,20.4375 -24.9375,0 z m 26.84375,-40.625 8.34375,0 c -0.61765,-10.07807 -2.15427,-25.99993 -4.625,-47.75 -1.23532,18.93757 -2.48337,34.85943 -3.71875,47.75 z"
           id="text2943"
           sodipodi:nodetypes="cccccccccccccccccccccccccc" />
      </g>
    </g>
    <g
       inkscape:label="Black"
       id="g2951"
       inkscape:groupmode="layer"
       style="display:none">
      <g
         style="display:inline"
         inkscape:groupmode="layer"
         id="g2953"
         inkscape:label="King Black"
         sodipodi:insensitive="true">
        <path
           style="font-size:36.30025864px;font-style:italic;font-weight:normal;fill:#000000;fill-opacity:1;stroke:none;font-family:Bitstream Vera Sans;-inkscape-font-specification:Impact Italic"
           d="m 9.6875,7.53125 0,113.8125 24.375,0 0,-48.78125 9.84375,48.78125 25.1875,0 -15.28125,-62.4375 13.9375,-51.375 -22.875,0 -10.8125,44.21875 0,-44.21875 -24.375,0 z m 158.625,228.9375 -15.28125,-62.4375 13.9375,-51.375 -22.875,0 -10.8125,44.21875 0,-44.21875 -24.375,0 0,113.8125 24.375,0 0,-48.78125 9.84375,48.78125 25.1875,0 z"
           id="text2957"
           sodipodi:nodetypes="cccccccccccccccccccccccc" />
      </g>
      <g
         inkscape:label="Queen Black"
         id="g2965"
         inkscape:groupmode="layer"
         style="display:none">
        <path
           style="font-size:36.30025864px;font-style:italic;font-weight:normal;fill:#000000;fill-opacity:1;stroke:none;font-family:Bitstream Vera Sans;-inkscape-font-specification:Impact Italic"
           d="m 38.1875,5.125 c -4.516782,1.162e-4 -8.606467,0.9219903 -12.3125,2.75 -3.706071,1.8282367 -6.738873,4.546984 -9.09375,8.15625 -2.354897,3.562602 -3.915411,7.390723 -4.6875,11.46875 -0.733495,4.03134 -1.125004,9.890709 -1.125,17.625 l 0,35.25 c -4e-6,10.218781 0.663539,17.906273 1.9375,23.0625 1.273949,5.10939 3.898701,9.32813 7.875,12.65625 3.976271,3.32813 8.698249,5.0625 14.21875,5.25 -2.8e-5,4.26562 0.319796,7.23437 0.9375,8.875 0.656251,1.64061 1.904296,2.85936 3.71875,3.65625 1.814388,0.84374 4.935417,1.24999 9.375,1.25 l 18.40625,0 0,-13.78125 -8.4375,0 c -2.818196,0 -4.634203,-0.3125 -5.40625,-0.96875 -0.733536,-0.65625 -1.165481,-2.25 -1.28125,-4.78125 3.82182,-1.12499 6.878518,-2.73437 9.15625,-4.84375 2.316228,-2.15624 3.876742,-5.04686 4.6875,-8.65625 C 66.966889,98.484398 67.374939,91.62503 67.375,81.5 l 0,-37 C 67.374939,37.140709 67.06247,31.609465 66.40625,27.90625 65.788515,24.156347 64.404453,20.562601 62.28125,17.09375 60.19654,13.625108 57.003826,10.750111 52.71875,8.5 48.472186,6.2501151 43.630732,5.1251162 38.1875,5.125 z m 1.09375,19.28125 c 1.505551,9.7e-5 2.505458,0.750096 2.96875,2.25 0.501826,1.453218 0.749964,4.828215 0.75,10.125 l 0,52.3125 c -3.6e-5,6.703151 -0.224279,10.93752 -0.6875,12.71875 -0.463292,1.78127 -1.52753,2.65627 -3.1875,2.65625 -1.62143,2e-5 -2.661773,-0.76561 -3.125,-2.3125 C 35.575319,100.6094 35.343721,96.5469 35.34375,89.9375 l 0,-53.15625 c -2.9e-5,-5.859285 0.34369,-9.390531 1,-10.5625 0.694855,-1.218654 1.663512,-1.812403 2.9375,-1.8125 z m 128.25,215.96875 0,-13.78125 -8.4375,0 c -2.8182,0 -4.6342,-0.3125 -5.40625,-0.96875 -0.73354,-0.65625 -1.16548,-2.25 -1.28125,-4.78125 3.82182,-1.12499 6.87852,-2.73437 9.15625,-4.84375 2.31623,-2.15624 3.87674,-5.04686 4.6875,-8.65625 0.81064,-3.60935 1.21869,-10.46872 1.21875,-20.59375 l 0,-37 c -6e-5,-7.35929 -0.31253,-12.89054 -0.96875,-16.59375 -0.61773,-3.7499 -2.0018,-7.34365 -4.125,-10.8125 -2.08471,-3.46864 -5.27742,-6.34364 -9.5625,-8.59375 -4.24656,-2.24988 -9.08802,-3.37488 -14.53125,-3.375 -4.51678,1.2e-4 -8.60647,0.92199 -12.3125,2.75 -3.70607,1.82824 -6.73887,4.54698 -9.09375,8.15625 -2.3549,3.5626 -3.91541,7.39072 -4.6875,11.46875 -0.73349,4.03134 -1.125,9.89071 -1.125,17.625 l 0,35.25 c 0,10.21878 0.66354,17.90627 1.9375,23.0625 1.27395,5.10939 3.8987,9.32813 7.875,12.65625 3.97627,3.32813 8.69825,5.0625 14.21875,5.25 -3e-5,4.26562 0.3198,7.23437 0.9375,8.875 0.65625,1.64061 1.9043,2.85936 3.71875,3.65625 1.81439,0.84374 4.93542,1.24999 9.375,1.25 l 18.40625,0 z m -28.3125,-30.65625 c -1.62143,2e-5 -2.66177,-0.76561 -3.125,-2.3125 -0.42468,-1.54685 -0.65628,-5.60935 -0.65625,-12.21875 l 0,-53.15625 c -3e-5,-5.85928 0.34369,-9.39053 1,-10.5625 0.69486,-1.21865 1.66351,-1.8124 2.9375,-1.8125 1.50555,1e-4 2.50546,0.7501 2.96875,2.25 0.50183,1.45322 0.74996,4.82821 0.75,10.125 l 0,52.3125 c -4e-5,6.70315 -0.22428,10.93752 -0.6875,12.71875 -0.46329,1.78127 -1.52753,2.65627 -3.1875,2.65625 z"
           id="text2969"
           sodipodi:nodetypes="cscccccsccccccccccsccccccccccsscccccccccccscccccsscccccsccccccccccscccsc" />
      </g>
      <g
         style="display:none"
         inkscape:groupmode="layer"
         id="g2977"
         inkscape:label="Jack Black">
        <path
           style="font-size:36.30025864px;font-style:italic;font-weight:normal;fill:#000000;fill-opacity:1;stroke:none;font-family:Bitstream Vera Sans;-inkscape-font-specification:Impact Italic"
           d="m 23.125,7.53125 0,80.0625 c -10e-6,4.312529 -0.09559,7.218777 -0.25,8.71875 -0.154429,1.500024 -0.715036,2.781272 -1.71875,3.8125 -1.003731,1.03127 -2.387792,1.53127 -4.125,1.53125 -0.656284,2e-5 -1.720522,-0.0469 -3.1875,-0.1875 l 0,19.875 12.21875,0 c 5.404646,0 9.46125,-0.48437 12.125,-1.46875 2.702304,-1.03125 4.79953,-2.84375 6.34375,-5.46875 1.582761,-2.62499 2.494442,-5.57811 2.6875,-8.8125 0.192989,-3.28123 0.281215,-10.609349 0.28125,-22 l 0,-76.0625 -24.375,0 z m 119.59375,228.9375 c 5.40465,0 9.46125,-0.48437 12.125,-1.46875 2.7023,-1.03125 4.79953,-2.84375 6.34375,-5.46875 1.58276,-2.62499 2.49444,-5.57811 2.6875,-8.8125 0.19299,-3.28123 0.28122,-10.60935 0.28125,-22 l 0,-76.0625 -24.375,0 0,80.0625 c -1e-5,4.31253 -0.0956,7.21878 -0.25,8.71875 -0.15443,1.50002 -0.71504,2.78127 -1.71875,3.8125 -1.00373,1.03127 -2.38779,1.53127 -4.125,1.53125 -0.65628,2e-5 -1.72052,-0.0469 -3.1875,-0.1875 l 0,19.875 12.21875,0 z"
           id="text2981"
           sodipodi:nodetypes="ccssscccccsccccccsccccsssccc" />
      </g>
      <g
         inkscape:label="10 Black"
         id="g2989"
         inkscape:groupmode="layer"
         style="display:none">
        <path
           style="font-size:29.80582809px;font-style:italic;font-weight:normal;fill:#000000;fill-opacity:1;stroke:none;font-family:Bitstream Vera Sans;-inkscape-font-specification:Impact Italic"
           d="m 54.625,5.34375 c -4.242441,1.16e-4 -7.881892,1.5782601 -10.875,4.71875 -2.967101,3.140712 -4.953697,7.297013 -5.96875,12.5 -0.989035,5.203184 -1.468753,13.04703 -1.46875,23.5 l 0,39.71875 c -3e-6,8.0156 0.312845,13.859421 0.9375,17.5625 0.624647,3.65624 1.672698,7.17191 3.15625,10.5 1.483539,3.32811 3.470134,5.78126 5.96875,7.375 2.49859,1.54686 5.632296,2.3125 9.40625,2.3125 2.86296,0 5.464807,-0.75001 7.78125,-2.25 2.316383,-1.49999 4.266506,-3.95314 5.90625,-7.375 1.639672,-3.42184 2.729418,-7.09376 3.25,-11.03125 C 73.239253,98.937548 73.49996,92.656222 73.5,84.03125 l 0,-37.96875 c -4e-5,-8.624859 -0.255524,-14.906186 -0.75,-18.84375 -0.468527,-3.937376 -1.365377,-7.484294 -2.71875,-10.625 -1.353447,-3.140496 -3.392183,-5.781154 -6.125,-7.9375 C 61.173372,6.4532544 58.086585,5.343866 54.625,5.34375 z m -33.75,2.1875 C 16.918861,16.718794 11.125944,22.765743 3.5,25.71875 l 0,13.3125 1.5625,0 c 3.6437941,8.2e-5 5.990156,0.468838 7.03125,1.40625 1.067103,0.890699 1.703245,2.21884 1.9375,4 0.234233,1.781313 0.374989,7.062628 0.375,15.875 l 0,61.03125 15.75,0 0,-113.8125 -9.28125,0 z m 34.09375,15.3125 c 1.197226,9.9e-5 1.937651,0.765733 2.25,2.3125 0.338329,1.500085 0.499976,5.297006 0.5,11.34375 l 0,56.375 c -2.4e-5,5.578111 -0.166894,9.15628 -0.53125,10.75 -0.364403,1.59376 -1.141301,2.40627 -2.3125,2.40625 -1.171242,2e-5 -1.916889,-0.67187 -2.28125,-2.03125 -0.338372,-1.35935 -0.531269,-5.359396 -0.53125,-11.96875 l 0,-55.53125 c -1.9e-5,-5.859246 0.198101,-9.593666 0.5625,-11.1875 0.390388,-1.640517 1.172508,-2.468651 2.34375,-2.46875 z m 100.9375,215.8125 c 2.86296,0 5.46481,-0.75 7.78125,-2.25 2.31638,-1.5 4.29776,-3.95312 5.9375,-7.375 1.63967,-3.42186 2.72942,-7.09374 3.25,-11.03125 0.5205,-3.93748 0.78121,-10.21872 0.78125,-18.84375 l 0,-37.96875 c -4e-5,-8.62492 -0.25552,-14.90616 -0.75,-18.84375 -0.46853,-3.9374 -1.39663,-7.48427 -2.75,-10.625 -1.35345,-3.14052 -3.39218,-5.78114 -6.125,-7.9375 -2.73288,-2.20301 -5.81966,-3.31238 -9.28125,-3.3125 -4.24244,1.2e-4 -7.85064,1.57824 -10.84375,4.71875 -2.9671,3.14073 -4.9537,7.29698 -5.96875,12.5 -0.98903,5.20322 -1.5,13.04696 -1.5,23.5 l 0,39.71875 c 0,8.01565 0.31285,13.8594 0.9375,17.5625 0.62465,3.65626 1.6727,7.17189 3.15625,10.5 1.48354,3.32813 3.47013,5.78125 5.96875,7.375 2.49859,1.54687 5.6323,2.3125 9.40625,2.3125 z m -25.59375,-2.1875 0,-113.8125 -9.28125,0 c -3.95614,9.18761 -9.74906,15.23447 -17.375,18.1875 l 0,13.3125 1.5625,0 c 3.64379,8e-5 5.99016,0.46883 7.03125,1.40625 1.0671,0.89071 1.70324,2.21883 1.9375,4 0.23423,1.78133 0.34374,7.06257 0.34375,15.875 l 0,61.03125 15.78125,0 z m 24.71875,-15.3125 c -1.17124,2e-5 -1.94814,-0.67186 -2.3125,-2.03125 -0.33837,-1.35936 -0.50002,-5.35935 -0.5,-11.96875 l 0,-55.53125 c -2e-5,-5.85928 0.16685,-9.59366 0.53125,-11.1875 0.39039,-1.64053 1.17251,-2.46865 2.34375,-2.46875 1.19723,1e-4 1.9689,0.76572 2.28125,2.3125 0.33833,1.50009 0.49998,5.29697 0.5,11.34375 l 0,56.375 c -2e-5,5.57815 -0.19814,9.15627 -0.5625,10.75 -0.3644,1.59377 -1.11005,2.40627 -2.28125,2.40625 z"
           id="text2993"
           sodipodi:nodetypes="ccccccscsssscccscccccccscccccccccssccccccssscccscscccccscccccccccsccccccccscccsc" />
      </g>
      <g
         style="display:none"
         inkscape:groupmode="layer"
         id="g3001"
         inkscape:label="9 Black">
        <path
           style="font-size:36.30025864px;font-style:italic;font-weight:normal;fill:#000000;fill-opacity:1;stroke:none;font-family:Bitstream Vera Sans;-inkscape-font-specification:Impact Italic"
           d="m 38.09375,5.34375 c -5.057248,1.16e-4 -9.521902,0.9219901 -13.34375,2.75 -3.821884,1.8282365 -6.806895,4.390734 -8.96875,7.71875 -2.161872,3.281352 -3.522039,6.859474 -4.0625,10.75 -0.501866,3.890716 -0.750004,9.843835 -0.75,17.8125 l 0,9.0625 c -4e-6,6.703186 0.455836,12.031306 1.34375,15.96875 0.887903,3.937548 2.968588,7.312545 6.25,10.125 3.281388,2.812539 7.058605,4.218788 11.34375,4.21875 3.435796,3.8e-5 6.308686,-0.749962 8.625,-2.25 2.316251,-1.546834 4.060572,-3.859331 5.21875,-6.90625 l 0,18.15625 c -3.7e-5,4.265649 -0.04047,7.093772 -0.15625,8.5 -0.07725,1.40627 -0.509191,2.54689 -1.28125,3.4375 -0.77213,0.89064 -1.772037,1.34377 -2.96875,1.34375 -1.428407,2e-5 -2.556976,-0.46873 -3.40625,-1.40625 -0.810728,-0.93748 -1.259214,-2.07811 -1.375,-3.4375 C 34.446658,99.781272 34.374972,96.4219 34.375,91.125 l -23.40625,0 c -4e-6,7.125023 0.904322,13.03127 2.71875,17.71875 1.853019,4.68751 4.893176,8.32813 9.0625,10.90625 4.207897,2.57812 9.586063,3.84375 16.1875,3.84375 5.327417,0 10.04021,-0.98438 14.09375,-3 4.053448,-2.0625 7.238807,-5.14062 9.59375,-9.21875 2.393436,-4.07811 3.753602,-8.39061 4.0625,-12.9375 0.308778,-4.593723 0.46869,-13.671838 0.46875,-27.21875 l 0,-15.8125 C 67.15619,42.890703 66.972383,34.453212 66.625,30.09375 66.277498,25.734471 65.012912,21.59385 62.8125,17.65625 60.611976,13.671983 57.483593,10.609486 53.46875,8.5 49.453814,6.3907399 44.347681,5.343866 38.09375,5.34375 z m 1.03125,17.5 c 1.65997,9.9e-5 2.836329,0.765723 3.53125,2.3125 C 43.389704,26.70322 43.749963,29.984466 43.75,35 l 0,20.625 c -3.7e-5,4.171937 -0.384192,6.984434 -1.15625,8.4375 -0.733525,1.406306 -1.909885,2.093805 -3.53125,2.09375 -1.080964,5.5e-5 -2.145202,-0.562444 -3.1875,-1.6875 -1.003751,-1.124942 -1.500028,-4.062439 -1.5,-8.84375 l 0,-21.3125 c -2.8e-5,-5.249908 0.544039,-8.453029 1.625,-9.625 1.080903,-1.218652 2.121245,-1.843651 3.125,-1.84375 z m 101.6875,217.8125 c 5.32742,0 10.04021,-0.98438 14.09375,-3 4.05345,-2.0625 7.23881,-5.14062 9.59375,-9.21875 2.39344,-4.07811 3.7536,-8.39061 4.0625,-12.9375 0.30878,-4.59372 0.46869,-13.67184 0.46875,-27.21875 l 0,-15.8125 c -6e-5,-12.51555 -0.18387,-20.95304 -0.53125,-25.3125 -0.3475,-4.35928 -1.61209,-8.4999 -3.8125,-12.4375 -2.20052,-3.98427 -5.32891,-7.04676 -9.34375,-9.15625 -4.01494,-2.10926 -9.12107,-3.15613 -15.375,-3.15625 -5.05725,1.2e-4 -9.5219,0.92199 -13.34375,2.75 -3.82188,1.82824 -6.8069,4.39073 -8.96875,7.71875 -2.16187,3.28135 -3.52204,6.85947 -4.0625,10.75 -0.50187,3.89072 -0.75,9.84383 -0.75,17.8125 l 0,9.0625 c 0,6.70319 0.45584,12.03131 1.34375,15.96875 0.8879,3.93755 2.96859,7.31254 6.25,10.125 3.28139,2.81254 7.0586,4.21879 11.34375,4.21875 3.4358,4e-5 6.30869,-0.74996 8.625,-2.25 2.31625,-1.54683 4.06057,-3.85933 5.21875,-6.90625 l 0,18.15625 c -4e-5,4.26565 -0.0405,7.09377 -0.15625,8.5 -0.0772,1.40627 -0.50919,2.54689 -1.28125,3.4375 -0.77213,0.89064 -1.77204,1.34377 -2.96875,1.34375 -1.42841,2e-5 -2.55698,-0.46873 -3.40625,-1.40625 -0.81073,-0.93748 -1.25921,-2.07811 -1.375,-3.4375 -0.11584,-1.40623 -0.18753,-4.7656 -0.1875,-10.0625 l -23.40625,0 c 0,7.12502 0.90432,13.03127 2.71875,17.71875 1.85302,4.68751 4.89318,8.32813 9.0625,10.90625 4.2079,2.57812 9.58606,3.84375 16.1875,3.84375 z m 0.125,-57.4375 c -1.08096,6e-5 -2.1452,-0.56244 -3.1875,-1.6875 -1.00375,-1.12494 -1.50003,-4.06244 -1.5,-8.84375 l 0,-21.3125 c -3e-5,-5.24991 0.54404,-8.45303 1.625,-9.625 1.0809,-1.21865 2.12125,-1.84365 3.125,-1.84375 1.65997,1e-4 2.83633,0.76572 3.53125,2.3125 0.73345,1.54697 1.09371,4.82822 1.09375,9.84375 l 0,20.625 c -4e-5,4.17194 -0.38419,6.98443 -1.15625,8.4375 -0.73353,1.40631 -1.90988,2.09381 -3.53125,2.09375 z"
           id="text3005"
           sodipodi:nodetypes="csccccsssccccsscsccccscccccscsccccccscccccccccccscsssccccsssccccsscsccccccccccsccccc" />
      </g>
      <g
         inkscape:label="8 Black"
         id="g3013"
         inkscape:groupmode="layer"
         style="display:none">
        <path
           style="font-size:36.30025864px;font-style:italic;font-weight:normal;fill:#000000;fill-opacity:1;stroke:none;font-family:Bitstream Vera Sans;-inkscape-font-specification:Impact Italic"
           d="m 38.25,5.34375 c -8.917719,1.16e-4 -15.615615,2.4532385 -20.09375,7.375 -4.478157,4.875104 -6.718755,12.203221 -6.71875,22 -5e-6,5.671956 0.727869,10.359451 2.15625,14.0625 1.466972,3.656319 3.635884,6.343816 6.53125,8.03125 -4.593973,3.046937 -7.330847,7.093807 -8.21875,12.15625 -0.849309,5.062547 -1.281254,11.046916 -1.28125,17.9375 -4e-6,10.265649 0.887782,17.59377 2.625,22 1.77581,4.40626 4.665241,7.95313 8.71875,10.625 4.053479,2.67187 9.582371,4 16.53125,4 7.141839,0 12.815934,-1.39063 17.0625,-4.15625 4.246469,-2.8125 7.095464,-6.39062 8.5625,-10.75 1.466922,-4.35936 2.21869,-11.124976 2.21875,-20.3125 -6e-5,-12.609329 -0.928281,-20.578071 -2.78125,-23.90625 -1.853083,-3.37494 -4.50173,-5.906187 -7.9375,-7.59375 4.014841,-2.671808 6.663488,-5.37493 7.9375,-8.09375 1.312503,-2.718675 1.968691,-7.140545 1.96875,-13.28125 C 65.531191,25.781345 63.562627,18.359478 59.625,13.15625 55.687267,7.9532384 48.557425,5.343866 38.25,5.34375 z m 0.1875,17.5 c 1.582761,9.9e-5 2.646999,0.640723 3.1875,1.90625 0.579036,1.218845 0.843714,3.750093 0.84375,7.59375 l 0,7.8125 c -3.6e-5,4.031327 -0.272069,6.687574 -0.8125,8 -0.540501,1.265697 -1.580843,1.906321 -3.125,1.90625 -1.467011,7.1e-5 -2.507353,-0.656178 -3.125,-1.96875 C 34.788546,46.781325 34.499972,44.421952 34.5,41 l 0,-8.65625 c -2.8e-5,-3.656157 0.272006,-6.156155 0.8125,-7.46875 0.540437,-1.359277 1.58078,-2.031151 3.125,-2.03125 z m -0.0625,46 c 1.582761,5.3e-5 2.735226,0.703177 3.46875,2.15625 0.733454,1.406299 1.093714,4.296921 1.09375,8.65625 l 0,14.5625 c -3.6e-5,5.015647 -0.295965,8.23439 -0.875,9.6875 -0.579106,1.40627 -1.68378,2.12502 -3.34375,2.125 -1.62143,2e-5 -2.821684,-0.71873 -3.59375,-2.125 -0.733518,-1.40623 -1.093777,-4.546853 -1.09375,-9.46875 l 0,-14.78125 C 34.031223,75.203171 34.343692,72.296924 35,70.9375 c 0.694857,-1.406198 1.83078,-2.093697 3.375,-2.09375 z m 101.15625,171.8125 c 7.14184,0 12.81593,-1.39063 17.0625,-4.15625 4.24647,-2.8125 7.09546,-6.39062 8.5625,-10.75 1.46692,-4.35936 2.21869,-11.12498 2.21875,-20.3125 -6e-5,-12.60933 -0.92828,-20.57807 -2.78125,-23.90625 -1.85308,-3.37494 -4.50173,-5.90619 -7.9375,-7.59375 4.01484,-2.67181 6.66349,-5.37493 7.9375,-8.09375 1.3125,-2.71867 1.96869,-7.14055 1.96875,-13.28125 -6e-5,-9.65615 -1.96862,-17.07802 -5.90625,-22.28125 -3.93773,-5.20301 -11.06757,-7.81238 -21.375,-7.8125 -8.91772,1.2e-4 -15.61562,2.45324 -20.09375,7.375 -4.47816,4.8751 -6.71875,12.20322 -6.71875,22 0,5.67196 0.72787,10.35945 2.15625,14.0625 1.46697,3.65632 3.63588,6.34382 6.53125,8.03125 -4.59397,3.04694 -7.33085,7.09381 -8.21875,12.15625 -0.84931,5.06255 -1.28125,11.04692 -1.28125,17.9375 0,10.26565 0.88778,17.59377 2.625,22 1.77581,4.40626 4.66524,7.95313 8.71875,10.625 4.05348,2.67187 9.58237,4 16.53125,4 z m 0.21875,-17.5 c -1.62143,2e-5 -2.82168,-0.71873 -3.59375,-2.125 -0.73352,-1.40623 -1.09378,-4.54685 -1.09375,-9.46875 l 0,-14.78125 c -3e-5,-4.45308 0.31244,-7.35933 0.96875,-8.71875 0.69486,-1.4062 1.83078,-2.0937 3.375,-2.09375 1.58276,5e-5 2.73523,0.70318 3.46875,2.15625 0.73345,1.4063 1.09371,4.29692 1.09375,8.65625 l 0,14.5625 c -4e-5,5.01565 -0.29596,8.23439 -0.875,9.6875 -0.57911,1.40627 -1.68378,2.12502 -3.34375,2.125 z m -0.1875,-55.96875 c -1.46701,7e-5 -2.50735,-0.65618 -3.125,-1.96875 -0.6177,-1.31243 -0.90628,-3.6718 -0.90625,-7.09375 l 0,-8.65625 c -3e-5,-3.65616 0.27201,-6.15615 0.8125,-7.46875 0.54044,-1.35928 1.58078,-2.03115 3.125,-2.03125 1.58276,1e-4 2.647,0.64072 3.1875,1.90625 0.57904,1.21885 0.84371,3.75009 0.84375,7.59375 l 0,7.8125 c -4e-5,4.03133 -0.27207,6.68757 -0.8125,8 -0.5405,1.2657 -1.58084,1.90632 -3.125,1.90625 z"
           id="text3017"
           sodipodi:nodetypes="ccscccscsscsscccssccccccsscccccccccscccccccsscccssscscccscsccccccsccccccscccsccccc" />
      </g>
      <g
         style="display:none"
         inkscape:groupmode="layer"
         id="g3025"
         inkscape:label="7 Black">
        <path
           style="font-size:36.30025864px;font-style:italic;font-weight:normal;fill:#000000;fill-opacity:1;stroke:none;font-family:Bitstream Vera Sans;-inkscape-font-specification:Impact Italic"
           d="m 15.5,7.53125 0,20.4375 23.125,0 -16.625,93.375 23.28125,0 14.9375,-89 0,-24.8125 -44.71875,0 z m 132.0625,228.9375 14.9375,-89 0,-24.8125 -44.71875,0 0,20.4375 23.125,0 -16.625,93.375 23.28125,0 z"
           id="text3029"
           sodipodi:nodetypes="cccccccccccccccc" />
      </g>
      <g
         inkscape:label="6 Black"
         id="g3037"
         inkscape:groupmode="layer"
         style="display:none">
        <path
           style="font-size:36.30025864px;font-style:italic;font-weight:normal;fill:#000000;fill-opacity:1;stroke:none;font-family:Bitstream Vera Sans;-inkscape-font-specification:Impact Italic"
           d="M 39.25,5.28125 C 33.922518,5.2813661 29.185831,6.312615 25.09375,8.375 21.040238,10.390736 17.854878,13.421983 15.5,17.5 c -2.354896,4.078225 -3.715062,8.406345 -4.0625,13 -0.308842,4.546961 -0.468754,13.609452 -0.46875,27.15625 l 0,15.75 c -4e-6,12.562536 0.183803,21.015652 0.53125,25.375 0.386042,4.35939 1.650628,8.54689 3.8125,12.53125 2.20046,3.93751 5.328843,6.95313 9.34375,9.0625 4.014872,2.10937 9.1449,3.15625 15.4375,3.15625 5.057183,0 9.497942,-0.92188 13.28125,-2.75 3.821819,-1.82812 6.806831,-4.375 8.96875,-7.65625 2.200413,-3.32811 3.560579,-6.92186 4.0625,-10.8125 0.501802,-3.890602 0.74994,-9.843721 0.75,-17.8125 l 0,-9.0625 c -6e-5,-6.703072 -0.455901,-12.031192 -1.34375,-15.96875 -0.887967,-3.937434 -2.968653,-7.312431 -6.25,-10.125 -3.281453,-2.812425 -7.058669,-4.218674 -11.34375,-4.21875 -3.397256,7.6e-5 -6.24625,0.79695 -8.5625,2.34375 -2.316315,1.500072 -4.084532,3.765695 -5.28125,6.8125 l 0,-18.15625 c -2.8e-5,-4.265536 0.07166,-7.093658 0.1875,-8.5 0.115786,-1.406155 0.540377,-2.546779 1.3125,-3.4375 0.772065,-0.890527 1.771972,-1.343651 2.96875,-1.34375 1.428342,9.9e-5 2.533016,0.468848 3.34375,1.40625 0.849268,0.937596 1.329004,2.125095 1.40625,3.53125 0.115777,1.359467 0.156213,4.671964 0.15625,9.96875 l 23.40625,0 C 67.15619,30.625091 66.251864,24.718847 64.4375,20.03125 62.623021,15.343856 59.614114,11.703235 55.40625,9.125 51.198288,6.5469898 45.812768,5.2813661 39.25,5.28125 z m -0.1875,57.4375 c 1.65997,5.9e-5 2.860225,0.750058 3.59375,2.25 0.733454,1.500055 1.093713,4.250052 1.09375,8.28125 l 0,21.3125 c -3.7e-5,5.250022 -0.544104,8.50002 -1.625,9.71875 -1.080967,1.17189 -2.12131,1.75002 -3.125,1.75 -1.660035,2e-5 -2.860289,-0.76561 -3.59375,-2.3125 C 34.711337,102.17189 34.374972,98.890648 34.375,93.875 l 0,-20.625 c -2.8e-5,-4.171823 0.360232,-6.937445 1.09375,-8.34375 0.772065,-1.453067 1.97232,-2.187441 3.59375,-2.1875 z m 102.90625,178 c 5.05718,0 9.49794,-0.92188 13.28125,-2.75 3.82182,-1.82812 6.80683,-4.375 8.96875,-7.65625 2.20041,-3.32811 3.56058,-6.92186 4.0625,-10.8125 0.5018,-3.8906 0.74994,-9.84372 0.75,-17.8125 l 0,-9.0625 c -6e-5,-6.70307 -0.4559,-12.03119 -1.34375,-15.96875 -0.88797,-3.93743 -2.96865,-7.31243 -6.25,-10.125 -3.28145,-2.81243 -7.05867,-4.21867 -11.34375,-4.21875 -3.39726,8e-5 -6.24625,0.79695 -8.5625,2.34375 -2.31632,1.50007 -4.08453,3.7657 -5.28125,6.8125 l 0,-18.15625 c -3e-5,-4.26554 0.0717,-7.09366 0.1875,-8.5 0.11579,-1.40615 0.54038,-2.54678 1.3125,-3.4375 0.77207,-0.89053 1.77197,-1.34365 2.96875,-1.34375 1.42834,1e-4 2.53302,0.46885 3.34375,1.40625 0.84927,0.9376 1.329,2.12509 1.40625,3.53125 0.11578,1.35947 0.15621,4.67196 0.15625,9.96875 l 23.40625,0 c -6e-5,-7.12491 -0.90439,-13.03115 -2.71875,-17.71875 -1.81448,-4.68739 -4.82339,-8.32802 -9.03125,-10.90625 -4.20796,-2.57801 -9.59348,-3.84363 -16.15625,-3.84375 -5.32748,1.2e-4 -10.06417,1.03137 -14.15625,3.09375 -4.05351,2.01574 -7.23887,5.04698 -9.59375,9.125 -2.3549,4.07822 -3.71506,8.40635 -4.0625,13 -0.30884,4.54696 -0.46875,13.60945 -0.46875,27.15625 l 0,15.75 c 0,12.56254 0.1838,21.01565 0.53125,25.375 0.38604,4.35939 1.65063,8.54689 3.8125,12.53125 2.20046,3.93751 5.32884,6.95313 9.34375,9.0625 4.01487,2.10937 9.1449,3.15625 15.4375,3.15625 z m -1.09375,-17.5 c -1.66003,2e-5 -2.86029,-0.76561 -3.59375,-2.3125 -0.69491,-1.54686 -1.03128,-4.8281 -1.03125,-9.84375 l 0,-20.625 c -3e-5,-4.17182 0.36023,-6.93744 1.09375,-8.34375 0.77207,-1.45307 1.97232,-2.18744 3.59375,-2.1875 1.65997,6e-5 2.86022,0.75006 3.59375,2.25 0.73345,1.50005 1.09371,4.25005 1.09375,8.28125 l 0,21.3125 c -4e-5,5.25002 -0.5441,8.50002 -1.625,9.71875 -1.08097,1.17189 -2.12131,1.75002 -3.125,1.75 z"
           id="text3041"
           sodipodi:nodetypes="ccscccccssccsccssscccsssccccssccscccsccccccccsccssscccsssccccssscscccccsccccccsscccc" />
      </g>
      <g
         style="display:none"
         inkscape:groupmode="layer"
         id="g3049"
         inkscape:label="5 Black">
        <path
           style="font-size:36.30025864px;font-style:italic;font-weight:normal;fill:#000000;fill-opacity:1;stroke:none;font-family:Bitstream Vera Sans;-inkscape-font-specification:Impact Italic"
           d="m 11.84375,7.53125 -0.96875,57.375 23.15625,0 c -2.7e-5,-3.328065 0.0882,-5.453063 0.28125,-6.34375 0.231601,-0.937436 0.703982,-1.79681 1.4375,-2.59375 0.73346,-0.796809 1.669037,-1.187433 2.75,-1.1875 1.698575,6.7e-5 2.891475,0.765691 3.625,2.3125 0.733454,1.546938 1.093714,4.453185 1.09375,8.71875 l 0,22.5625 C 43.1415,96.2969 43.077173,100.78127 43,101.8125 c -0.03864,1.03127 -0.422796,1.98439 -1.15625,2.875 -0.69492,0.89064 -1.623141,1.34377 -2.78125,1.34375 -2.509338,2e-5 -3.981626,-1.56248 -4.40625,-4.65625 -0.42468,-3.093727 -0.625027,-8.296847 -0.625,-15.65625 l 0,-7.125 -23.40625,0 0,6.1875 c -4e-6,10.593776 0.976008,18.43752 2.90625,23.5 1.930229,5.06251 5.187273,8.89063 9.78125,11.46875 4.593944,2.53125 9.915133,3.78125 15.9375,3.78125 5.366022,0 9.887652,-0.84375 13.59375,-2.53125 3.74461,-1.73437 6.665291,-4.1875 8.75,-7.375 2.084599,-3.23436 3.444766,-6.71874 4.0625,-10.46875 0.656221,-3.796853 0.96869,-9.749972 0.96875,-17.8125 l 0,-16.21875 c -6e-5,-12.468685 -1.6488,-20.890552 -4.96875,-25.25 -3.281455,-4.406168 -8.146804,-6.624916 -14.59375,-6.625 -5.713537,8.4e-5 -10.402434,2.609456 -14.03125,7.8125 l 0,-19.34375 29.03125,0 0,-18.1875 -50.21875,0 z M 142,238.46875 c 5.36602,0 9.88765,-0.84375 13.59375,-2.53125 3.74461,-1.73437 6.66529,-4.1875 8.75,-7.375 2.0846,-3.23436 3.44477,-6.71874 4.0625,-10.46875 0.65622,-3.79685 0.96869,-9.74997 0.96875,-17.8125 l 0,-16.21875 c -6e-5,-12.46869 -1.6488,-20.89055 -4.96875,-25.25 -3.28145,-4.40617 -8.1468,-6.62492 -14.59375,-6.625 -5.71354,8e-5 -10.40243,2.60946 -14.03125,7.8125 l 0,-19.34375 29.03125,0 0,-18.1875 -50.21875,0 -0.96875,57.375 23.15625,0 c -3e-5,-3.32807 0.0882,-5.45306 0.28125,-6.34375 0.2316,-0.93744 0.70398,-1.79681 1.4375,-2.59375 0.73346,-0.79681 1.66904,-1.18743 2.75,-1.1875 1.69858,7e-5 2.89148,0.76569 3.625,2.3125 0.73345,1.54694 1.09371,4.45318 1.09375,8.71875 l 0,22.5625 c -0.0772,7.9219 -0.14158,12.40627 -0.21875,13.4375 -0.0386,1.03127 -0.4228,1.98439 -1.15625,2.875 -0.69492,0.89064 -1.62314,1.34377 -2.78125,1.34375 -2.50934,2e-5 -3.98163,-1.56248 -4.40625,-4.65625 -0.42468,-3.09373 -0.62503,-8.29685 -0.625,-15.65625 l 0,-7.125 -23.40625,0 0,6.1875 c 0,10.59378 0.97601,18.43752 2.90625,23.5 1.93023,5.06251 5.18727,8.89063 9.78125,11.46875 4.59394,2.53125 9.91513,3.78125 15.9375,3.78125 z"
           id="text3053"
           sodipodi:nodetypes="ccccsssccccssccccscsccccccsccccccccccccsccccccccsssccccssccccscc" />
      </g>
      <g
         inkscape:label="4 Black"
         id="g3061"
         inkscape:groupmode="layer"
         style="display:none">
        <path
           style="font-size:36.30025864px;font-style:italic;font-weight:normal;fill:#000000;fill-opacity:1;stroke:none;font-family:Bitstream Vera Sans;-inkscape-font-specification:Impact Italic"
           d="M 29.71875,7.53125 9.5,81.90625 l 0,19.40625 27.8125,0 0,20.03125 23.375,0 0,-20.03125 6.65625,0 0,-19.40625 -6.65625,0 0,-74.375 -30.96875,0 z m 7.59375,25.9375 0,48.4375 -10.3125,0 10.3125,-48.4375 z m 124.53125,203 0,-20.03125 6.65625,0 0,-19.40625 -6.65625,0 0,-74.375 -30.96875,0 -20.21875,74.375 0,19.40625 27.8125,0 0,20.03125 23.375,0 z m -23.375,-39.4375 -10.3125,0 10.3125,-48.4375 0,48.4375 z"
           id="text3065"
           sodipodi:nodetypes="cccccccccccccccccccccccccccccccc" />
      </g>
      <g
         style="display:none"
         inkscape:groupmode="layer"
         id="g3073"
         inkscape:label="3 Black">
        <path
           style="font-size:36.30025864px;font-style:italic;font-weight:normal;fill:#000000;fill-opacity:1;stroke:none;font-family:Bitstream Vera Sans;-inkscape-font-specification:Impact Italic"
           d="m 37.9375,5.28125 c -8.917716,1.161e-4 -15.407911,1.9063641 -19.5,5.75 -4.092108,3.796982 -6.156253,11.125099 -6.15625,22 l 0,9.71875 23.40625,0 0,-9.34375 c -2.7e-5,-4.359283 0.295902,-7.218655 0.875,-8.53125 0.617648,-1.359277 1.722321,-2.031151 3.34375,-2.03125 1.428343,9.9e-5 2.468686,0.640723 3.125,1.90625 0.69485,1.26572 1.031215,3.890718 1.03125,7.875 l 0,6.3125 c -3.5e-5,3.703204 -0.264714,6.421951 -0.84375,8.15625 -0.579105,1.734448 -1.531222,2.859446 -2.84375,3.375 -1.312592,0.515695 -4.753444,0.78132 -10.3125,0.78125 l 0,16.53125 c 4.555334,0.0938 7.635927,0.468803 9.21875,1.125 1.582762,0.609427 2.783017,1.921926 3.59375,3.9375 0.810665,2.015672 1.187465,5.203168 1.1875,9.5625 l 0,7.875 c -3.5e-5,7.125024 -0.264714,11.53127 -0.84375,13.21875 -0.579105,1.68752 -1.77936,2.53127 -3.59375,2.53125 -1.660033,2e-5 -2.748166,-0.65623 -3.25,-1.96875 -0.463284,-1.35936 -0.687527,-4.515603 -0.6875,-9.4375 l 0,-18.46875 -23.40625,0 0,9 c -3e-6,10.828151 0.656185,18.43752 1.96875,22.84375 1.351159,4.35938 4.135823,8.04688 8.34375,11.09375 4.246504,3 10.087865,4.5 17.5,4.5 6.524164,0 11.861894,-1.26563 16.03125,-3.84375 4.169261,-2.625 7.113837,-6.43749 8.8125,-11.40625 C 66.636051,103.32814 67.468691,96.2969 67.46875,87.25 67.468691,75.062546 66.612156,67.343804 64.875,64.0625 63.137732,60.734436 60.489085,58.328188 56.9375,56.875 c 3.59019,-2.343683 6.10282,-4.906181 7.53125,-7.71875 1.428318,-2.8593 2.124942,-7.49992 2.125,-13.875 C 66.593692,25.85947 64.601233,18.515728 60.625,13.21875 56.648663,7.9219884 49.094231,5.2813661 37.9375,5.28125 z m 102.40625,235.4375 c 6.52416,0 11.86189,-1.26563 16.03125,-3.84375 4.16926,-2.625 7.11384,-6.43749 8.8125,-11.40625 1.69855,-5.01561 2.53119,-12.04685 2.53125,-21.09375 -6e-5,-12.18745 -0.85659,-19.9062 -2.59375,-23.1875 -1.73727,-3.32806 -4.38592,-5.73431 -7.9375,-7.1875 3.59019,-2.34368 6.10282,-4.90618 7.53125,-7.71875 1.42832,-2.8593 2.12494,-7.49992 2.125,-13.875 -6e-5,-9.42178 -1.99252,-16.76552 -5.96875,-22.0625 -3.97634,-5.29676 -11.53077,-7.93738 -22.6875,-7.9375 -8.91772,1.2e-4 -15.40791,1.90636 -19.5,5.75 -4.09211,3.79698 -6.15625,11.1251 -6.15625,22 l 0,9.71875 23.40625,0 0,-9.34375 c -3e-5,-4.35928 0.2959,-7.21865 0.875,-8.53125 0.61765,-1.35928 1.72232,-2.03115 3.34375,-2.03125 1.42834,1e-4 2.46869,0.64072 3.125,1.90625 0.69485,1.26572 1.03121,3.89072 1.03125,7.875 l 0,6.3125 c -4e-5,3.7032 -0.26471,6.42195 -0.84375,8.15625 -0.5791,1.73445 -1.53122,2.85945 -2.84375,3.375 -1.31259,0.5157 -4.75344,0.78132 -10.3125,0.78125 l 0,16.53125 c 4.55533,0.0938 7.63593,0.4688 9.21875,1.125 1.58276,0.60943 2.78302,1.92193 3.59375,3.9375 0.81066,2.01567 1.18746,5.20317 1.1875,9.5625 l 0,7.875 c -4e-5,7.12502 -0.26471,11.53127 -0.84375,13.21875 -0.5791,1.68752 -1.77936,2.53127 -3.59375,2.53125 -1.66003,2e-5 -2.74817,-0.65623 -3.25,-1.96875 -0.46328,-1.35936 -0.68753,-4.5156 -0.6875,-9.4375 l 0,-18.46875 -23.40625,0 0,9 c 0,10.82815 0.65618,18.43752 1.96875,22.84375 1.35116,4.35938 4.13582,8.04688 8.34375,11.09375 4.2465,3 10.08787,4.5 17.5,4.5 z"
           id="text3077"
           sodipodi:nodetypes="cccccccscccsscccsccsscccccccsccscccssccccscccsssccccccscccsscccsccsscccccccc" />
      </g>
      <g
         inkscape:label="2 Black"
         id="g3085"
         inkscape:groupmode="layer"
         style="display:none">
        <path
           style="font-size:36.30025864px;font-style:italic;font-weight:normal;fill:#000000;fill-opacity:1;stroke:none;font-family:Bitstream Vera Sans;-inkscape-font-specification:Impact Italic"
           d="m 39.25,5.34375 c -4.748407,1.16e-4 -8.821552,0.9219901 -12.21875,2.75 -3.39723,1.8282365 -6.157999,4.500109 -8.28125,8.0625 -2.123267,3.562602 -3.459538,7.203223 -4,10.90625 -0.54047,3.656341 -0.812503,8.687586 -0.8125,15.0625 l 0,4.125 20.96875,0 0,-10.8125 c -2.4e-5,-5.015534 0.431921,-8.374906 1.28125,-10.0625 0.887883,-1.687402 2.192904,-2.531151 3.96875,-2.53125 1.775787,9.9e-5 3.088163,0.765723 3.9375,2.3125 0.887875,1.500095 1.343715,3.812592 1.34375,6.90625 -3.5e-5,4.031335 -1.448427,9.65633 -4.34375,16.875 -2.856779,7.17194 -11.907394,25.906296 -27.15625,56.1875 l 0,16.21875 51.46875,0 0,-19.40625 -25.65625,0 C 52.875571,78.359418 60.773723,62.953183 63.4375,55.6875 66.139777,48.421948 67.499943,41.515705 67.5,35 67.499943,26.42197 65.099434,19.359477 60.3125,13.78125 55.564072,8.1563631 48.553706,5.343866 39.25,5.34375 z m 124.71875,233.3125 0,-19.40625 -25.65625,0 C 151.43807,195.67192 159.33622,180.26568 162,173 c 2.70228,-7.26555 4.06244,-14.1718 4.0625,-20.6875 -6e-5,-8.57803 -2.40057,-15.64052 -7.1875,-21.21875 -4.74843,-5.62489 -11.75879,-8.43738 -21.0625,-8.4375 -4.74841,1.2e-4 -8.82155,0.92199 -12.21875,2.75 -3.39723,1.82824 -6.158,4.50011 -8.28125,8.0625 -2.12327,3.5626 -3.45954,7.20322 -4,10.90625 -0.54047,3.65634 -0.8125,8.68759 -0.8125,15.0625 l 0,4.125 20.96875,0 0,-10.8125 c -2e-5,-5.01553 0.43192,-8.37491 1.28125,-10.0625 0.88788,-1.6874 2.1929,-2.53115 3.96875,-2.53125 1.77579,1e-4 3.08816,0.76572 3.9375,2.3125 0.88787,1.50009 1.34372,3.81259 1.34375,6.90625 -3e-5,4.03134 -1.44843,9.65633 -4.34375,16.875 -2.85678,7.17194 -11.90739,25.9063 -27.15625,56.1875 l 0,16.21875 51.46875,0 z"
           id="text3089"
           sodipodi:nodetypes="cssccccccscscccccccsccccccscsssccccccscscccc" />
      </g>
      <g
         style="display:none"
         inkscape:groupmode="layer"
         id="g3097"
         inkscape:label="Ace Black">
        <path
           style="font-size:36.30025864px;font-style:italic;font-weight:normal;fill:#000000;fill-opacity:1;stroke:none;font-family:Bitstream Vera Sans;-inkscape-font-specification:Impact Italic"
           d="m 20.5,7.53125 -12.375,113.8125 25.25,0 1.4375,-20.4375 8.75,0 1.21875,20.4375 24.9375,0 -13.9375,-113.8125 -35.28125,0 z m 18.65625,25.4375 c 1.23532,18.93757 2.483365,34.859428 3.71875,47.75 l -8.34375,0 c 0.61765,-10.078074 2.154268,-25.999933 4.625,-47.75 z m 130.71875,203.5 -13.9375,-113.8125 -35.28125,0 -12.375,113.8125 25.25,0 1.4375,-20.4375 8.75,0 1.21875,20.4375 24.9375,0 z m -26.84375,-40.625 -8.34375,0 c 0.61765,-10.07807 2.15427,-25.99993 4.625,-47.75 1.23532,18.93757 2.48337,34.85943 3.71875,47.75 z"
           id="text3101"
           sodipodi:nodetypes="cccccccccccccccccccccccccc" />
      </g>
    </g>
  </g>
</svg>
